<svg width="500" height="413" viewBox="0 0 500 413" fill="none" xmlns="http://www.w3.org/2000/svg">
<g clip-path="url(#clip0_39_66)">
<rect y="123" width="180" height="48" rx="10" transform="rotate(-30 0 123)" fill="#428FCD"/>
<path d="M51.4309 110.795L50.3485 112.33C48.6816 114.693 47.8481 115.875 48.3461 116.738C48.8442 117.6 50.2844 117.469 53.1649 117.208L55.0353 117.038C56.848 116.873 57.7545 116.791 58.5154 116.351C59.2763 115.912 59.8008 115.168 60.8498 113.681L61.9322 112.146C63.5992 109.782 64.4326 108.6 63.9346 107.738C63.4366 106.875 61.9964 107.006 59.1158 107.268L57.2454 107.438C55.4327 107.602 54.5263 107.685 53.7654 108.124C53.0045 108.563 52.4799 109.307 51.4309 110.795Z" stroke="white" stroke-width="1.5" stroke-linecap="round" stroke-linejoin="round"/>
<path d="M65.9246 111.608C66.1463 111.71 66.3112 111.854 66.4251 112.051C66.916 112.902 66.0782 114.076 64.4026 116.425L63.3146 117.95C62.2602 119.428 61.7329 120.167 60.972 120.606C60.2111 121.046 59.3074 121.133 57.5001 121.307L55.6353 121.487C52.7634 121.763 51.3275 121.902 50.8366 121.051C50.7227 120.854 50.6803 120.639 50.7033 120.396" stroke="white" stroke-width="1.5" stroke-linecap="round" stroke-linejoin="round"/>
<path d="M68.1528 116.291C68.6782 116.37 69.0231 116.551 69.2184 116.89C69.7093 117.74 68.8716 118.914 67.196 121.263L66.108 122.788C65.0536 124.266 64.5263 125.005 63.7654 125.445C63.0045 125.884 62.1008 125.971 60.2935 126.145L58.4286 126.325C55.5568 126.602 54.1209 126.74 53.6299 125.89C53.4346 125.551 53.4496 125.162 53.644 124.667" stroke="white" stroke-width="1.5" stroke-linecap="round" stroke-linejoin="round"/>
<path d="M89.2751 99.7331L91.4751 103.544C91.1843 104.192 90.8068 104.77 90.3427 105.278C89.8806 105.779 89.3123 106.224 88.638 106.613C87.8389 107.075 87.0477 107.368 86.2644 107.494C85.4783 107.616 84.7287 107.586 84.0154 107.407C83.3041 107.22 82.6461 106.886 82.0413 106.404C81.4365 105.921 80.9181 105.306 80.4861 104.558C80.0488 103.801 79.7679 103.042 79.6434 102.282C79.5236 101.52 79.5551 100.791 79.7379 100.094C79.918 99.3927 80.2515 98.7383 80.7383 98.1308C81.2251 97.5234 81.8565 96.9956 82.6325 96.5476C83.0251 96.321 83.4073 96.1403 83.7791 96.0057C84.1483 95.8665 84.5081 95.7696 84.8584 95.7151C85.2061 95.656 85.5477 95.6343 85.8832 95.65C86.216 95.6611 86.5446 95.7023 86.8691 95.7736L86.84 96.6033C86.8333 96.7304 86.7894 96.8357 86.7084 96.9195C86.6294 96.9959 86.5121 97.0328 86.3567 97.0302C86.2085 97.0295 86.0361 97.0243 85.8396 97.0146C85.6431 97.0049 85.4169 97.0185 85.1611 97.0553C84.9072 97.0849 84.622 97.151 84.3056 97.2536C83.9938 97.3536 83.6463 97.5142 83.2629 97.7356C82.704 98.0582 82.2516 98.4426 81.9056 98.8887C81.557 99.3302 81.322 99.8138 81.2006 100.34C81.0766 100.861 81.0691 101.413 81.1782 101.997C81.2847 102.576 81.5112 103.166 81.8579 103.766C82.2179 104.39 82.6283 104.898 83.0891 105.291C83.5519 105.676 84.0473 105.948 84.5752 106.105C85.1051 106.254 85.6576 106.283 86.2328 106.192C86.8079 106.1 87.3887 105.884 87.9753 105.546C88.4372 105.279 88.8166 104.992 89.1136 104.685C89.4125 104.371 89.6796 104.023 89.9147 103.641L88.6547 101.458L87.1097 102.35C87.0219 102.401 86.9357 102.417 86.8509 102.398C86.7708 102.377 86.7094 102.329 86.6667 102.255L86.2267 101.493L89.2751 99.7331ZM91.62 97.2615C91.5644 96.6532 91.6209 96.1217 91.7895 95.6671C91.9555 95.208 92.2717 94.8437 92.7382 94.5744C92.886 94.489 93.0363 94.4239 93.1889 94.3789C93.3461 94.3312 93.4978 94.3114 93.6441 94.3193L94.086 95.2928C94.125 95.4242 94.089 95.522 93.9782 95.586C93.9135 95.6233 93.8108 95.6641 93.6701 95.7084C93.5294 95.7527 93.3805 95.8202 93.2235 95.9108C93.0018 96.0388 92.8218 96.1858 92.6836 96.3518C92.5501 96.5151 92.4514 96.7015 92.3875 96.9108C92.3255 97.1128 92.2938 97.3405 92.2923 97.5939C92.2927 97.84 92.3184 98.1085 92.3693 98.3993L94.9293 102.833L93.6891 103.549L89.6371 96.5311L90.3438 96.1231C90.4778 96.0458 90.5848 96.0178 90.6649 96.0393C90.7451 96.0608 90.8304 96.1285 90.9209 96.2426L91.62 97.2615ZM97.2946 91.9622C97.8073 91.6662 98.3185 91.485 98.8283 91.4186C99.338 91.3521 99.829 91.392 100.301 91.538C100.774 91.6841 101.215 91.9372 101.626 92.2972C102.039 92.6499 102.405 93.1011 102.722 93.6508C103.042 94.205 103.251 94.7492 103.35 95.2833C103.454 95.8147 103.451 96.3214 103.341 96.8035C103.232 97.2856 103.021 97.7307 102.708 98.1389C102.393 98.5425 101.979 98.8924 101.467 99.1884C100.949 99.487 100.435 99.6732 99.9231 99.7469C99.4134 99.8134 98.9223 99.7736 98.45 99.6275C97.9777 99.4814 97.535 99.232 97.122 98.8793C96.7136 98.5238 96.3494 98.069 96.0294 97.5148C95.712 96.9651 95.5016 96.4246 95.398 95.8932C95.2964 95.3545 95.3004 94.8441 95.41 94.362C95.5197 93.88 95.7307 93.4348 96.0431 93.0266C96.3601 92.6157 96.7773 92.2609 97.2946 91.9622ZM100.911 98.2253C101.603 97.8253 101.987 97.2957 102.063 96.6365C102.135 95.9727 101.931 95.2251 101.451 94.3937C100.969 93.5577 100.422 93.0051 99.8105 92.7359C99.1994 92.4668 98.5474 92.5322 97.8546 92.9322C97.5036 93.1349 97.2311 93.3722 97.0372 93.6443C96.8478 93.9137 96.7308 94.2123 96.6859 94.5399C96.6457 94.8649 96.6777 95.219 96.7819 95.6022C96.8881 95.9782 97.0612 96.374 97.3012 96.7897C97.7812 97.6211 98.3268 98.1713 98.9379 98.4405C99.551 98.7024 100.209 98.6307 100.911 98.2253ZM111.833 83.7165L113.612 92.0468L112.635 92.6108C112.515 92.6801 112.387 92.6496 112.25 92.5192L107.95 88.6556C107.852 88.5707 107.76 88.4818 107.676 88.3889C107.589 88.2913 107.503 88.1961 107.419 88.1032C107.457 88.2228 107.496 88.3447 107.537 88.4689C107.576 88.5884 107.608 88.7143 107.635 88.8465L108.8 94.5112C108.849 94.6923 108.802 94.8241 108.658 94.9068L107.73 95.4428L101.406 89.7365L102.376 89.1765C102.473 89.1205 102.568 89.0993 102.662 89.1127C102.761 89.1235 102.842 89.1569 102.905 89.2129L106.857 92.9541C107.127 93.2413 107.371 93.5194 107.588 93.7883C107.541 93.6119 107.494 93.4331 107.444 93.2521C107.4 93.0684 107.357 92.8811 107.314 92.6901L106.173 87.2892C106.156 87.2065 106.162 87.1261 106.19 87.048C106.224 86.9671 106.282 86.9027 106.365 86.8547L106.906 86.5427C106.998 86.4893 107.087 86.4684 107.174 86.48C107.261 86.4915 107.336 86.5252 107.399 86.5812L111.471 90.2901C111.615 90.4224 111.753 90.5551 111.885 90.6881C112.018 90.8211 112.146 90.9532 112.271 91.0843C112.206 90.9185 112.146 90.7501 112.09 90.579C112.037 90.4007 111.983 90.2163 111.928 90.0261L110.692 84.7169C110.672 84.6296 110.682 84.5443 110.72 84.4607C110.755 84.3726 110.816 84.3032 110.904 84.2525L111.833 83.7165ZM114.336 82.2713L118.388 89.2895L117.155 90.0015L113.103 82.9833L114.336 82.2713ZM113.327 79.9161C113.396 80.0362 113.436 80.164 113.447 80.2996C113.459 80.4279 113.448 80.5576 113.413 80.6887C113.38 80.8126 113.321 80.9296 113.237 81.0398C113.157 81.1473 113.057 81.2357 112.937 81.3051C112.817 81.3744 112.691 81.4166 112.558 81.4318C112.43 81.4443 112.304 81.4339 112.18 81.4007C112.053 81.3629 111.937 81.3065 111.833 81.2316C111.725 81.152 111.637 81.0522 111.567 80.9321C111.498 80.812 111.456 80.6855 111.441 80.5526C111.423 80.4151 111.431 80.2844 111.464 80.1606C111.494 80.0321 111.547 79.9154 111.622 79.8106C111.701 79.7031 111.801 79.6146 111.921 79.5453C112.041 79.476 112.168 79.4337 112.301 79.4186C112.438 79.4008 112.57 79.4108 112.697 79.4486C112.825 79.4791 112.945 79.5364 113.055 79.6206C113.167 79.6975 113.258 79.796 113.327 79.9161ZM118.114 81.4478C118.168 81.189 118.24 80.9409 118.331 80.7037C118.422 80.4664 118.534 80.2446 118.667 80.0383C118.803 79.8247 118.962 79.6312 119.145 79.4577C119.33 79.2769 119.547 79.1146 119.797 78.9706C120.18 78.7492 120.555 78.6192 120.92 78.5805C121.288 78.5346 121.637 78.5734 121.967 78.6969C122.299 78.8132 122.61 79.006 122.901 79.2753C123.192 79.5445 123.452 79.8778 123.682 80.275L126.262 84.7437L125.021 85.4597L122.441 80.991C122.135 80.4598 121.775 80.1194 121.362 79.9698C120.951 79.8128 120.499 79.877 120.005 80.1624C119.64 80.373 119.349 80.6581 119.131 81.0176C118.918 81.3745 118.765 81.7803 118.67 82.2352L121.654 87.4037L120.414 88.1197L116.362 81.1014L117.103 80.6734C117.279 80.5721 117.437 80.5948 117.577 80.7417L118.114 81.4478ZM128.606 78.8173C128.856 78.6733 129.055 78.512 129.205 78.3334C129.354 78.1547 129.457 77.9657 129.515 77.7664C129.572 77.567 129.584 77.3632 129.55 77.155C129.513 76.9421 129.435 76.7318 129.315 76.5239C129.067 76.0944 128.738 75.8286 128.328 75.7265C127.922 75.6218 127.473 75.7122 126.978 75.9975C126.48 76.2855 126.172 76.6325 126.055 77.0385C125.943 77.4419 126.011 77.8584 126.259 78.2879C126.379 78.4958 126.522 78.6688 126.688 78.807C126.856 78.9379 127.041 79.0283 127.242 79.0784C127.443 79.1284 127.659 79.1334 127.888 79.0934C128.118 79.0533 128.357 78.9613 128.606 78.8173ZM133.03 81.3438C132.932 81.1729 132.803 81.0623 132.645 81.0121C132.486 80.9619 132.307 80.9547 132.106 80.9907C131.91 81.024 131.696 81.0917 131.466 81.194C131.233 81.2916 130.99 81.4041 130.737 81.5316C130.489 81.6564 130.236 81.7839 129.979 81.914C129.721 82.0442 129.468 82.1598 129.218 82.2608C129.029 82.5302 128.904 82.8053 128.845 83.086C128.787 83.3595 128.829 83.6186 128.97 83.8634C129.061 84.0205 129.184 84.1433 129.34 84.2319C129.503 84.3225 129.696 84.3682 129.918 84.3692C130.143 84.3749 130.396 84.3334 130.678 84.2448C130.966 84.1582 131.282 84.0162 131.623 83.8189C131.956 83.6269 132.236 83.4248 132.465 83.2128C132.694 83.0008 132.866 82.7873 132.982 82.5725C133.103 82.3549 133.168 82.142 133.177 81.9335C133.186 81.7251 133.137 81.5285 133.03 81.3438ZM130.172 73.4976L130.436 73.9549C130.524 74.1073 130.483 74.2603 130.313 74.4138L129.577 74.9778C129.91 75.1919 130.183 75.4838 130.396 75.8533C130.593 76.1951 130.707 76.5455 130.735 76.9046C130.766 77.2564 130.723 77.5982 130.607 77.9302C130.491 78.2621 130.301 78.5746 130.039 78.8675C129.777 79.1604 129.457 79.4161 129.078 79.6348C128.75 79.8241 128.418 79.9635 128.082 80.053C127.988 80.2307 127.932 80.3954 127.914 80.5469C127.895 80.6939 127.915 80.8205 127.977 80.9267C128.073 81.093 128.213 81.1813 128.398 81.1918C128.584 81.1949 128.799 81.1509 129.042 81.0599C129.285 80.9688 129.55 80.8466 129.837 80.6932C130.129 80.5371 130.429 80.3852 130.738 80.2377C131.049 80.0828 131.36 79.9495 131.671 79.8376C131.987 79.7231 132.289 79.6595 132.577 79.647C132.866 79.6345 133.135 79.6912 133.387 79.8171C133.643 79.9403 133.864 80.1636 134.051 80.4869C134.224 80.7871 134.316 81.1221 134.326 81.4918C134.341 81.8589 134.27 82.2323 134.114 82.6121C133.96 82.9964 133.715 83.372 133.378 83.7386C133.049 84.1072 132.628 84.4395 132.116 84.7355C131.603 85.0315 131.126 85.2394 130.684 85.3591C130.242 85.4788 129.844 85.5266 129.491 85.5023C129.139 85.4781 128.832 85.3902 128.572 85.2385C128.32 85.0888 128.123 84.8916 127.981 84.6468C127.781 84.3004 127.721 83.9444 127.799 83.5789C127.877 83.2134 128.065 82.8497 128.361 82.4878C128.1 82.5155 127.863 82.4891 127.65 82.4087C127.439 82.3209 127.258 82.1455 127.106 81.8822C127.047 81.7806 127.006 81.666 126.981 81.5384C126.954 81.4062 126.947 81.2657 126.959 81.1168C126.974 80.9606 127.009 80.802 127.064 80.641C127.118 80.48 127.198 80.3199 127.304 80.1607C126.845 80.1667 126.427 80.0663 126.049 79.8596C125.668 79.6483 125.355 79.3302 125.11 78.9053C124.913 78.5635 124.799 78.2167 124.768 77.8649C124.739 77.5058 124.787 77.1613 124.91 76.8313C125.031 76.4967 125.223 76.1829 125.484 75.89C125.751 75.5945 126.078 75.3347 126.466 75.1107C126.771 74.9347 127.075 74.8053 127.379 74.7226C127.679 74.6353 127.975 74.5936 128.267 74.5976L130.172 73.4976Z" fill="white"/>
</g>
<rect x="121.433" y="142.097" width="180" height="48" rx="10" transform="rotate(5.47717 121.433 142.097)" fill="#0F1636"/>
<path d="M175.543 165.906L174.448 177.318L172.903 177.169L173.401 171.977L167.246 171.387L166.748 176.579L165.203 176.431L166.297 165.019L167.842 165.167L167.354 170.256L173.51 170.846L173.998 165.758L175.543 165.906ZM182.653 173.146C182.684 172.816 182.665 172.512 182.596 172.232C182.532 171.947 182.419 171.698 182.258 171.484C182.102 171.266 181.901 171.091 181.657 170.961C181.413 170.825 181.129 170.741 180.805 170.71C180.125 170.645 179.567 170.792 179.131 171.152C178.7 171.508 178.404 172.031 178.241 172.723L182.653 173.146ZM183.437 177.038C183.241 177.234 183.014 177.399 182.754 177.535C182.495 177.666 182.22 177.768 181.929 177.842C181.643 177.916 181.35 177.963 181.048 177.982C180.745 178.007 180.448 178.005 180.156 177.977C179.599 177.924 179.093 177.782 178.638 177.55C178.189 177.315 177.809 177 177.499 176.605C177.194 176.207 176.972 175.73 176.832 175.175C176.693 174.621 176.656 173.996 176.723 173.3C176.777 172.738 176.912 172.22 177.129 171.748C177.351 171.276 177.641 170.878 177.999 170.554C178.357 170.224 178.78 169.98 179.266 169.823C179.753 169.661 180.289 169.608 180.873 169.664C181.356 169.71 181.794 169.835 182.187 170.039C182.586 170.238 182.919 170.506 183.187 170.842C183.461 171.174 183.661 171.573 183.787 172.041C183.915 172.503 183.951 173.021 183.896 173.594C183.874 173.817 183.836 173.964 183.781 174.033C183.726 174.103 183.632 174.132 183.5 174.119L178.108 173.602C178.076 174.113 178.102 174.563 178.188 174.952C178.279 175.341 178.424 175.674 178.623 175.95C178.822 176.221 179.069 176.435 179.365 176.591C179.661 176.743 180 176.837 180.383 176.874C180.738 176.908 181.047 176.897 181.31 176.842C181.578 176.782 181.81 176.713 182.005 176.636C182.2 176.558 182.362 176.485 182.492 176.417C182.627 176.344 182.74 176.312 182.831 176.321C182.947 176.332 183.033 176.386 183.088 176.482L183.437 177.038ZM189.917 175.136C189.262 175.095 188.7 175.094 188.229 175.135C187.765 175.171 187.381 175.241 187.076 175.346C186.777 175.451 186.552 175.588 186.402 175.755C186.257 175.924 186.174 176.119 186.153 176.342C186.132 176.555 186.149 176.741 186.204 176.902C186.258 177.062 186.339 177.199 186.446 177.311C186.559 177.418 186.692 177.503 186.847 177.566C187.008 177.624 187.181 177.662 187.367 177.68C187.616 177.704 187.847 177.702 188.058 177.674C188.27 177.641 188.471 177.585 188.661 177.507C188.856 177.429 189.042 177.332 189.219 177.215C189.402 177.099 189.581 176.963 189.757 176.808L189.917 175.136ZM185.654 171.4C186.141 171.013 186.653 170.738 187.188 170.575C187.723 170.412 188.304 170.36 188.931 170.42C189.382 170.464 189.776 170.576 190.112 170.759C190.448 170.941 190.723 171.176 190.936 171.465C191.15 171.753 191.299 172.091 191.385 172.48C191.471 172.869 191.493 173.289 191.449 173.74L190.955 178.9L190.325 178.84C190.187 178.827 190.083 178.795 190.013 178.746C189.943 178.691 189.894 178.595 189.864 178.458L189.778 177.678C189.547 177.854 189.323 178.01 189.106 178.144C188.89 178.274 188.666 178.381 188.433 178.466C188.2 178.545 187.954 178.599 187.694 178.628C187.439 178.662 187.157 178.665 186.849 178.635C186.536 178.605 186.245 178.534 185.977 178.423C185.71 178.306 185.481 178.15 185.291 177.955C185.106 177.761 184.965 177.525 184.868 177.248C184.778 176.966 184.75 176.642 184.785 176.275C184.815 175.957 184.932 175.66 185.136 175.385C185.339 175.104 185.648 174.869 186.063 174.678C186.478 174.487 187.008 174.351 187.654 174.268C188.3 174.18 189.083 174.169 190.003 174.236L190.064 173.607C190.124 172.981 190.034 172.495 189.793 172.151C189.554 171.801 189.174 171.601 188.654 171.551C188.303 171.517 188.004 171.534 187.757 171.602C187.515 171.664 187.301 171.743 187.115 171.838C186.935 171.927 186.777 172.011 186.641 172.089C186.511 172.163 186.385 172.193 186.262 172.182C186.167 172.173 186.087 172.141 186.022 172.086C185.958 172.027 185.906 171.957 185.866 171.878L185.654 171.4ZM195.704 167.518L194.579 179.248L193.162 179.112L194.286 167.382L195.704 167.518ZM199.148 171.545L198.375 179.612L196.957 179.476L197.731 171.409L199.148 171.545ZM199.694 169.041C199.681 169.179 199.639 169.307 199.569 169.423C199.505 169.535 199.42 169.634 199.315 169.72C199.216 169.802 199.101 169.863 198.968 169.904C198.841 169.945 198.708 169.96 198.57 169.946C198.432 169.933 198.305 169.894 198.188 169.829C198.076 169.765 197.979 169.683 197.898 169.584C197.817 169.48 197.755 169.367 197.713 169.245C197.672 169.118 197.658 168.985 197.671 168.847C197.684 168.709 197.723 168.582 197.788 168.465C197.853 168.343 197.936 168.241 198.034 168.159C198.134 168.072 198.245 168.008 198.366 167.966C198.494 167.924 198.626 167.91 198.764 167.924C198.902 167.937 199.03 167.976 199.147 168.041C199.269 168.106 199.371 168.191 199.452 168.295C199.539 168.394 199.603 168.51 199.644 168.643C199.69 168.771 199.707 168.903 199.694 169.041ZM202.703 173.067C202.897 172.887 203.1 172.727 203.312 172.587C203.523 172.446 203.743 172.331 203.972 172.24C204.206 172.145 204.448 172.08 204.698 172.045C204.953 172.005 205.225 171.999 205.511 172.026C205.952 172.069 206.332 172.18 206.653 172.361C206.979 172.537 207.24 172.771 207.437 173.063C207.64 173.35 207.782 173.688 207.862 174.076C207.943 174.464 207.961 174.887 207.918 175.343L207.425 180.48L206 180.343L206.492 175.206C206.551 174.596 206.455 174.11 206.206 173.748C205.963 173.382 205.557 173.172 204.989 173.117C204.569 173.077 204.167 173.14 203.781 173.307C203.401 173.474 203.04 173.715 202.699 174.031L202.129 179.972L200.704 179.835L201.477 171.768L202.33 171.85C202.531 171.869 202.647 171.979 202.676 172.18L202.703 173.067ZM212.774 177.014C213.061 177.042 213.317 177.026 213.542 176.967C213.767 176.909 213.961 176.815 214.124 176.686C214.286 176.557 214.414 176.397 214.507 176.208C214.601 176.013 214.659 175.797 214.682 175.558C214.729 175.064 214.616 174.657 214.341 174.336C214.072 174.015 213.653 173.828 213.085 173.773C212.512 173.718 212.06 173.822 211.729 174.085C211.404 174.349 211.217 174.727 211.17 175.221C211.147 175.46 211.163 175.684 211.218 175.893C211.279 176.097 211.377 176.278 211.512 176.435C211.647 176.593 211.819 176.722 212.029 176.822C212.239 176.923 212.487 176.987 212.774 177.014ZM214.91 181.639C214.929 181.443 214.889 181.278 214.789 181.145C214.689 181.013 214.547 180.903 214.363 180.815C214.183 180.728 213.97 180.66 213.723 180.609C213.477 180.554 213.214 180.504 212.934 180.461C212.659 180.419 212.38 180.376 212.094 180.333C211.809 180.289 211.536 180.236 211.274 180.174C210.963 180.283 210.702 180.435 210.491 180.629C210.285 180.818 210.169 181.053 210.142 181.335C210.124 181.515 210.154 181.687 210.229 181.849C210.309 182.018 210.44 182.167 210.62 182.297C210.8 182.432 211.03 182.545 211.311 182.636C211.596 182.733 211.935 182.801 212.328 182.838C212.71 182.875 213.056 182.873 213.365 182.833C213.675 182.793 213.939 182.72 214.158 182.612C214.383 182.505 214.559 182.369 214.688 182.205C214.816 182.04 214.89 181.852 214.91 181.639ZM217.137 173.591L217.086 174.117C217.07 174.292 216.947 174.393 216.72 174.419L215.793 174.451C215.94 174.818 215.993 175.215 215.952 175.639C215.914 176.032 215.803 176.383 215.618 176.692C215.439 176.997 215.205 177.25 214.918 177.453C214.631 177.656 214.295 177.8 213.912 177.887C213.529 177.973 213.119 177.996 212.684 177.954C212.307 177.918 211.956 177.839 211.63 177.716C211.45 177.806 211.309 177.908 211.207 178.021C211.105 178.129 211.049 178.245 211.037 178.367C211.019 178.558 211.082 178.711 211.226 178.827C211.376 178.938 211.577 179.027 211.827 179.093C212.078 179.16 212.365 179.215 212.688 179.256C213.016 179.298 213.349 179.349 213.686 179.408C214.029 179.463 214.36 179.534 214.678 179.624C215.001 179.714 215.284 179.837 215.526 179.995C215.768 180.152 215.955 180.355 216.087 180.603C216.224 180.852 216.274 181.162 216.239 181.534C216.206 181.879 216.086 182.205 215.88 182.512C215.679 182.819 215.404 183.082 215.057 183.301C214.708 183.525 214.291 183.688 213.804 183.792C213.322 183.901 212.786 183.927 212.197 183.871C211.608 183.814 211.098 183.706 210.669 183.547C210.24 183.388 209.888 183.196 209.615 182.972C209.342 182.748 209.144 182.498 209.02 182.224C208.901 181.955 208.855 181.68 208.882 181.399C208.92 181.001 209.077 180.675 209.353 180.423C209.629 180.171 209.993 179.984 210.444 179.861C210.215 179.732 210.037 179.573 209.911 179.384C209.79 179.19 209.744 178.942 209.773 178.639C209.785 178.523 209.817 178.405 209.871 178.287C209.926 178.164 210.002 178.045 210.098 177.931C210.201 177.812 210.321 177.703 210.459 177.604C210.597 177.505 210.755 177.421 210.934 177.352C210.557 177.091 210.274 176.767 210.087 176.379C209.899 175.986 209.829 175.545 209.876 175.057C209.913 174.664 210.022 174.315 210.201 174.011C210.386 173.702 210.625 173.449 210.917 173.252C211.209 173.05 211.547 172.905 211.931 172.819C212.319 172.733 212.737 172.711 213.183 172.754C213.533 172.787 213.856 172.859 214.151 172.967C214.446 173.071 214.712 173.209 214.947 173.381L217.137 173.591Z" fill="white"/>
<path d="M249.774 170.47C247.261 168.577 244.868 169.013 243.368 169.93C242.753 170.306 242.445 170.494 242.276 170.478C242.107 170.461 241.841 170.218 241.308 169.732C240.01 168.547 237.743 167.664 234.917 169.045C231.207 170.858 229.735 177.872 237.242 184.628C238.672 185.914 239.387 186.558 240.722 186.686C242.057 186.814 242.881 186.318 244.53 185.326C253.184 180.12 253.071 172.955 249.774 170.47Z" stroke="white" stroke-width="1.5" stroke-linecap="round"/>
<path d="M241.867 174.741L241.295 180.714M238.595 177.441L244.567 178.014" stroke="white" stroke-width="1.5" stroke-linecap="round"/>
<rect x="30.1006" y="231.748" width="180" height="40" rx="10" fill="#D2C28B"/>
<path d="M79.2136 256.516C79.6563 256.516 80.0376 256.465 80.3576 256.364C80.6776 256.263 80.9389 256.121 81.1416 255.94C81.3496 255.753 81.5016 255.535 81.5976 255.284C81.6936 255.028 81.7416 254.748 81.7416 254.444C81.7416 253.852 81.5309 253.385 81.1096 253.044C80.6883 252.697 80.0563 252.524 79.2136 252.524H76.7336V256.516H79.2136ZM76.7336 247.508V251.42H78.7816C79.2189 251.42 79.5976 251.372 79.9176 251.276C80.2429 251.18 80.5096 251.047 80.7176 250.876C80.9309 250.705 81.0883 250.5 81.1896 250.26C81.2909 250.015 81.3416 249.748 81.3416 249.46C81.3416 248.783 81.1389 248.289 80.7336 247.98C80.3283 247.665 79.6989 247.508 78.8456 247.508H76.7336ZM78.8456 246.284C79.5496 246.284 80.1549 246.353 80.6616 246.492C81.1736 246.631 81.5923 246.828 81.9176 247.084C82.2483 247.34 82.4909 247.655 82.6456 248.028C82.8003 248.396 82.8776 248.812 82.8776 249.276C82.8776 249.559 82.8323 249.831 82.7416 250.092C82.6563 250.348 82.5256 250.588 82.3496 250.812C82.1736 251.036 81.9496 251.239 81.6776 251.42C81.4109 251.596 81.0963 251.74 80.7336 251.852C81.5763 252.012 82.2083 252.313 82.6296 252.756C83.0563 253.193 83.2696 253.769 83.2696 254.484C83.2696 254.969 83.1789 255.412 82.9976 255.812C82.8216 256.212 82.5603 256.556 82.2136 256.844C81.8723 257.132 81.4509 257.356 80.9496 257.516C80.4483 257.671 79.8776 257.748 79.2376 257.748H75.1896V246.284H78.8456ZM91.6895 249.644V257.748H90.8415C90.6388 257.748 90.5108 257.649 90.4575 257.452L90.3455 256.58C89.9935 256.969 89.5988 257.284 89.1615 257.524C88.7241 257.759 88.2228 257.876 87.6575 257.876C87.2148 257.876 86.8228 257.804 86.4815 257.66C86.1455 257.511 85.8628 257.303 85.6335 257.036C85.4041 256.769 85.2308 256.447 85.1135 256.068C85.0015 255.689 84.9455 255.271 84.9455 254.812V249.644H86.3695V254.812C86.3695 255.425 86.5081 255.9 86.7855 256.236C87.0681 256.572 87.4975 256.74 88.0735 256.74C88.4948 256.74 88.8868 256.641 89.2495 256.444C89.6175 256.241 89.9561 255.964 90.2655 255.612V249.644H91.6895ZM95.4513 249.644V257.748H94.0273V249.644H95.4513ZM95.7553 247.1C95.7553 247.239 95.726 247.369 95.6673 247.492C95.614 247.609 95.5393 247.716 95.4433 247.812C95.3527 247.903 95.2433 247.975 95.1153 248.028C94.9927 248.081 94.862 248.108 94.7233 248.108C94.5847 248.108 94.454 248.081 94.3313 248.028C94.214 247.975 94.11 247.903 94.0193 247.812C93.9287 247.716 93.8567 247.609 93.8033 247.492C93.75 247.369 93.7233 247.239 93.7233 247.1C93.7233 246.961 93.75 246.831 93.8033 246.708C93.8567 246.58 93.9287 246.471 94.0193 246.38C94.11 246.284 94.214 246.209 94.3313 246.156C94.454 246.103 94.5847 246.076 94.7233 246.076C94.862 246.076 94.9927 246.103 95.1153 246.156C95.2433 246.209 95.3527 246.284 95.4433 246.38C95.5393 246.471 95.614 246.58 95.6673 246.708C95.726 246.831 95.7553 246.961 95.7553 247.1ZM99.2631 245.964V257.748H97.8391V245.964H99.2631ZM106.852 251.572C106.586 251.215 106.298 250.967 105.988 250.828C105.679 250.684 105.332 250.612 104.948 250.612C104.196 250.612 103.618 250.881 103.212 251.42C102.807 251.959 102.604 252.727 102.604 253.724C102.604 254.252 102.65 254.705 102.74 255.084C102.831 255.457 102.964 255.767 103.14 256.012C103.316 256.252 103.532 256.428 103.788 256.54C104.044 256.652 104.335 256.708 104.66 256.708C105.13 256.708 105.538 256.601 105.884 256.388C106.236 256.175 106.559 255.873 106.852 255.484V251.572ZM108.276 245.964V257.748H107.428C107.226 257.748 107.098 257.649 107.044 257.452L106.916 256.468C106.57 256.884 106.175 257.22 105.732 257.476C105.29 257.732 104.778 257.86 104.196 257.86C103.732 257.86 103.311 257.772 102.932 257.596C102.554 257.415 102.231 257.151 101.964 256.804C101.698 256.457 101.492 256.025 101.348 255.508C101.204 254.991 101.132 254.396 101.132 253.724C101.132 253.127 101.212 252.572 101.372 252.06C101.532 251.543 101.762 251.095 102.06 250.716C102.359 250.337 102.724 250.041 103.156 249.828C103.594 249.609 104.084 249.5 104.628 249.5C105.124 249.5 105.548 249.585 105.9 249.756C106.258 249.921 106.575 250.153 106.852 250.452V245.964H108.276ZM112.029 249.644V257.748H110.605V249.644H112.029ZM112.333 247.1C112.333 247.239 112.304 247.369 112.245 247.492C112.192 247.609 112.117 247.716 112.021 247.812C111.931 247.903 111.821 247.975 111.693 248.028C111.571 248.081 111.44 248.108 111.301 248.108C111.163 248.108 111.032 248.081 110.909 248.028C110.792 247.975 110.688 247.903 110.597 247.812C110.507 247.716 110.435 247.609 110.381 247.492C110.328 247.369 110.301 247.239 110.301 247.1C110.301 246.961 110.328 246.831 110.381 246.708C110.435 246.58 110.507 246.471 110.597 246.38C110.688 246.284 110.792 246.209 110.909 246.156C111.032 246.103 111.163 246.076 111.301 246.076C111.44 246.076 111.571 246.103 111.693 246.156C111.821 246.209 111.931 246.284 112.021 246.38C112.117 246.471 112.192 246.58 112.245 246.708C112.304 246.831 112.333 246.961 112.333 247.1ZM115.713 250.82C115.889 250.623 116.076 250.444 116.273 250.284C116.471 250.124 116.679 249.988 116.897 249.876C117.121 249.759 117.356 249.671 117.601 249.612C117.852 249.548 118.121 249.516 118.409 249.516C118.852 249.516 119.241 249.591 119.577 249.74C119.919 249.884 120.201 250.092 120.425 250.364C120.655 250.631 120.828 250.953 120.945 251.332C121.063 251.711 121.121 252.129 121.121 252.588V257.748H119.689V252.588C119.689 251.975 119.548 251.5 119.265 251.164C118.988 250.823 118.564 250.652 117.993 250.652C117.572 250.652 117.177 250.753 116.809 250.956C116.447 251.159 116.111 251.433 115.801 251.78V257.748H114.369V249.644H115.225C115.428 249.644 115.553 249.743 115.601 249.94L115.713 250.82ZM126.115 253.788C126.403 253.788 126.656 253.748 126.875 253.668C127.094 253.588 127.278 253.476 127.427 253.332C127.576 253.188 127.688 253.017 127.763 252.82C127.838 252.617 127.875 252.396 127.875 252.156C127.875 251.66 127.723 251.265 127.419 250.972C127.12 250.679 126.686 250.532 126.115 250.532C125.539 250.532 125.099 250.679 124.795 250.972C124.496 251.265 124.347 251.66 124.347 252.156C124.347 252.396 124.384 252.617 124.459 252.82C124.539 253.017 124.654 253.188 124.803 253.332C124.952 253.476 125.136 253.588 125.355 253.668C125.574 253.748 125.827 253.788 126.115 253.788ZM128.683 258.188C128.683 257.991 128.627 257.831 128.515 257.708C128.403 257.585 128.251 257.489 128.059 257.42C127.872 257.351 127.654 257.303 127.403 257.276C127.152 257.244 126.886 257.22 126.603 257.204C126.326 257.188 126.043 257.172 125.755 257.156C125.467 257.14 125.19 257.113 124.923 257.076C124.624 257.215 124.379 257.391 124.187 257.604C124 257.812 123.907 258.057 123.907 258.34C123.907 258.521 123.952 258.689 124.043 258.844C124.139 259.004 124.283 259.14 124.475 259.252C124.667 259.369 124.907 259.46 125.195 259.524C125.488 259.593 125.832 259.628 126.227 259.628C126.611 259.628 126.955 259.593 127.259 259.524C127.563 259.455 127.819 259.356 128.027 259.228C128.24 259.1 128.403 258.948 128.515 258.772C128.627 258.596 128.683 258.401 128.683 258.188ZM130.131 249.964V250.492C130.131 250.668 130.019 250.78 129.795 250.828L128.875 250.948C129.056 251.3 129.147 251.689 129.147 252.116C129.147 252.511 129.07 252.871 128.915 253.196C128.766 253.516 128.558 253.791 128.291 254.02C128.024 254.249 127.704 254.425 127.331 254.548C126.958 254.671 126.552 254.732 126.115 254.732C125.736 254.732 125.379 254.687 125.043 254.596C124.872 254.703 124.742 254.817 124.651 254.94C124.56 255.057 124.515 255.177 124.515 255.3C124.515 255.492 124.592 255.639 124.747 255.74C124.907 255.836 125.115 255.905 125.371 255.948C125.627 255.991 125.918 256.017 126.243 256.028C126.574 256.039 126.91 256.057 127.251 256.084C127.598 256.105 127.934 256.145 128.259 256.204C128.59 256.263 128.883 256.359 129.139 256.492C129.395 256.625 129.6 256.809 129.755 257.044C129.915 257.279 129.995 257.583 129.995 257.956C129.995 258.303 129.907 258.639 129.731 258.964C129.56 259.289 129.312 259.577 128.987 259.828C128.662 260.084 128.262 260.287 127.787 260.436C127.318 260.591 126.787 260.668 126.195 260.668C125.603 260.668 125.086 260.609 124.643 260.492C124.2 260.375 123.832 260.217 123.539 260.02C123.246 259.823 123.024 259.593 122.875 259.332C122.731 259.076 122.659 258.807 122.659 258.524C122.659 258.124 122.784 257.785 123.035 257.508C123.286 257.231 123.63 257.009 124.067 256.844C123.827 256.737 123.635 256.596 123.491 256.42C123.352 256.239 123.283 255.996 123.283 255.692C123.283 255.575 123.304 255.455 123.347 255.332C123.39 255.204 123.454 255.079 123.539 254.956C123.63 254.828 123.739 254.708 123.867 254.596C123.995 254.484 124.144 254.385 124.315 254.3C123.915 254.076 123.603 253.78 123.379 253.412C123.155 253.039 123.043 252.607 123.043 252.116C123.043 251.721 123.118 251.364 123.267 251.044C123.422 250.719 123.635 250.444 123.907 250.22C124.179 249.991 124.502 249.815 124.875 249.692C125.254 249.569 125.667 249.508 126.115 249.508C126.467 249.508 126.795 249.548 127.099 249.628C127.403 249.703 127.68 249.815 127.931 249.964H130.131Z" fill="white"/>
<path d="M147.545 247.789H153.429M144.601 257.748L150.098 252.334C150.31 252.126 150.64 252.102 150.879 252.279L155.124 255.419C155.375 255.604 155.723 255.568 155.931 255.336L163.885 246.451M160.709 245.748H163.531C164.079 245.748 164.526 246.189 164.538 246.74L164.601 249.813" stroke="white" stroke-width="1.5" stroke-linecap="round" stroke-linejoin="round"/>
<path d="M476.602 0.127126C475.502 0.23205 474.696 1.20849 474.801 2.30806C474.906 3.40764 475.882 4.21396 476.982 4.10904L476.602 0.127126ZM415.083 138.141V136.141H414.662L414.277 136.311L415.083 138.141ZM384.452 116.658L384.401 114.659L384.14 114.665L383.89 114.739L384.452 116.658ZM258.453 113.657L270 125.204L281.547 113.657L270 102.11L258.453 113.657ZM476.792 2.11808L476.982 4.10904C482.726 3.56093 486.854 5.10527 489.773 8.01281C492.757 10.9858 494.708 15.6157 495.541 21.6373C497.21 33.6956 494.272 50.4824 487.646 67.6231C481.035 84.7248 470.847 101.928 458.281 114.822C445.702 127.729 430.922 136.141 415.083 136.141V138.141V140.141C432.395 140.141 448.142 130.956 461.145 117.614C474.161 104.259 484.612 86.5645 491.377 69.0654C498.126 51.6052 501.302 34.0887 499.504 21.0891C498.603 14.5817 496.425 8.99386 492.596 5.17904C488.701 1.29874 483.331 -0.51498 476.602 0.127126L476.792 2.11808ZM415.083 138.141L414.277 136.311C412.837 136.944 411.667 137.085 410.68 136.956C409.686 136.827 408.727 136.404 407.747 135.678C405.702 134.161 403.856 131.563 401.763 128.419C399.757 125.408 397.546 121.935 394.885 119.289C392.169 116.589 388.788 114.546 384.401 114.659L384.452 116.658L384.504 118.657C387.428 118.582 389.814 119.888 392.065 122.126C394.371 124.419 396.328 127.475 398.434 130.637C400.452 133.667 402.663 136.888 405.365 138.891C406.758 139.924 408.345 140.686 410.162 140.923C411.986 141.161 413.892 140.85 415.889 139.971L415.083 138.141ZM384.452 116.658L383.89 114.739C378.809 116.228 373.381 118.382 368.24 120.374C363.041 122.388 358.156 124.23 353.975 125.212C349.674 126.224 346.725 126.167 344.989 125.118C343.495 124.215 342.211 122.089 342.613 116.81L340.618 116.658L338.624 116.506C338.182 122.309 339.466 126.454 342.92 128.541C346.132 130.482 350.513 130.135 354.891 129.106C359.389 128.049 364.534 126.1 369.685 124.104C374.895 122.085 380.136 120.008 385.015 118.577L384.452 116.658ZM340.618 116.658L342.613 116.81C342.856 113.612 342.082 110.934 340.305 108.863C338.57 106.842 336.067 105.619 333.255 104.901C327.683 103.479 320.113 103.85 312.257 104.863C304.342 105.883 295.827 107.601 288.287 109.045C280.647 110.508 274.149 111.657 270 111.657V113.657V115.657C274.612 115.657 281.532 114.411 289.039 112.973C296.647 111.517 305.007 109.83 312.768 108.83C320.588 107.822 327.493 107.558 332.266 108.777C334.626 109.379 336.263 110.295 337.27 111.468C338.234 112.591 338.803 114.163 338.624 116.506L340.618 116.658Z" fill="#293C97" fill-opacity="0.11"/>
<path d="M429.948 310.064C429.016 309.471 427.78 309.747 427.187 310.679C426.595 311.612 426.871 312.848 427.803 313.44L429.948 310.064ZM280.663 397.503L281.917 395.945L281.538 395.64L281.061 395.543L280.663 397.503ZM272.615 358.646L273.821 357.051L273.579 356.868L273.293 356.765L272.615 358.646ZM176.661 276.908L178.418 293.143L194.653 291.387L192.896 275.151L176.661 276.908ZM428.875 311.752L427.803 313.44C432.578 316.474 434.658 320.397 434.793 324.931C434.932 329.61 433 335.178 429.164 341.292C421.505 353.499 406.76 367.083 388.943 378.634C371.15 390.168 350.497 399.542 331.174 403.467C311.801 407.403 294.157 405.794 281.917 395.945L280.663 397.503L279.409 399.061C292.997 409.995 312.091 411.426 331.971 407.387C351.902 403.338 373.019 393.724 391.119 381.99C409.195 370.272 424.465 356.307 432.553 343.417C436.59 336.982 438.963 330.614 438.791 324.812C438.614 318.864 435.766 313.761 429.948 310.064L428.875 311.752ZM280.663 397.503L281.061 395.543C279.497 395.225 278.54 394.64 277.918 393.96C277.284 393.268 276.851 392.315 276.619 391.021C276.137 388.322 276.62 384.743 277.303 380.551C277.96 376.527 278.786 372.003 278.662 367.946C278.536 363.843 277.427 359.779 273.821 357.051L272.615 358.646L271.408 360.241C273.636 361.927 274.556 364.54 274.664 368.069C274.774 371.644 274.041 375.705 273.356 379.907C272.698 383.942 272.057 388.229 272.682 391.725C273.004 393.529 273.681 395.256 274.968 396.661C276.266 398.079 278.038 399.01 280.265 399.463L280.663 397.503ZM272.615 358.646L273.293 356.765C268.227 354.938 262.402 353.503 256.935 352.103C251.397 350.686 246.252 349.311 242.29 347.598C238.21 345.833 236.057 343.984 235.5 342.017C234.974 340.16 235.632 337.212 239.939 332.518L238.465 331.165L236.991 329.813C232.482 334.728 230.524 339.126 231.651 343.107C232.748 346.978 236.518 349.459 240.702 351.269C245.005 353.13 250.465 354.576 255.943 355.978C261.492 357.399 267.094 358.782 271.937 360.528L272.615 358.646ZM238.465 331.165L239.939 332.518C242.377 329.86 243.681 327.069 243.815 324.171C243.949 321.29 242.914 318.59 241.22 316.124C237.889 311.275 231.667 306.841 224.798 302.841C217.87 298.806 209.959 295.034 203.028 291.63C195.988 288.174 190.112 285.165 186.911 282.589L185.657 284.147L184.403 285.706C188.027 288.622 194.368 291.835 201.265 295.221C208.269 298.66 216.013 302.353 222.785 306.297C229.616 310.276 235.138 314.336 237.923 318.389C239.286 320.373 239.902 322.225 239.82 323.985C239.739 325.729 238.961 327.667 236.991 329.813L238.465 331.165Z" fill="#293C97" fill-opacity="0.11"/>
<defs>
<clipPath id="clip0_39_66">
<rect y="123" width="180" height="48" rx="10" transform="rotate(-30 0 123)" fill="white"/>
</clipPath>
</defs>
</svg>
