<svg width="190" height="44" viewBox="0 0 190 44" fill="none" xmlns="http://www.w3.org/2000/svg">
<path d="M24.6772 0L23.4718 7.88157H3.29754L4.203 1.95417C4.37598 0.829781 5.34091 0 6.47882 0H24.6745H24.6772Z" fill="#428FCD"/>
<path d="M10.6412 12.0391L9.43576 19.9206L8.80058 24.0776L7.5951 31.9592H2.30289C0.891988 31.9592 -0.186457 30.7024 0.0270698 29.3077L0.827119 24.0776L1.45689 19.9206L2.66237 12.0391H10.6412Z" fill="#428FCD"/>
<path d="M22.8366 12.0391L21.6311 19.9233H13.6522L14.8577 12.0391H22.8366Z" fill="#293C97"/>
<path d="M31.3317 36.1191L30.4262 42.0465C30.2532 43.1709 29.2883 44.0007 28.1504 44.0007H9.96822L11.1737 36.1191H31.329H31.3317Z" fill="#293C97"/>
<path d="M32.3263 12.0391C33.7372 12.0391 34.8157 13.2959 34.6022 14.6906L33.8021 19.9206L33.1723 24.0776L31.9669 31.9592H11.8116L13.0171 24.0776H25.2016L25.8314 19.9206H25.8368L27.0368 12.0391H32.3263Z" fill="#293C97"/>
<path d="M46.4948 32.0561H50.6707V24.4556H59.0145V21.1473H50.6707V15.6173H59.9172V12.2549H46.4948V32.0561Z" fill="#FDFEFE"/>
<path d="M71.7639 25.7995C71.7639 26.4563 71.6396 27.0158 71.3882 27.4807C71.1368 27.9456 70.7882 28.2997 70.3395 28.5429C69.8908 28.7862 69.3746 28.9078 68.7908 28.9078C67.9312 28.9078 67.2582 28.6483 66.7636 28.124C66.269 27.6023 66.023 26.878 66.023 25.9563V17.199H61.9147V26.6482C61.9147 27.8105 62.1309 28.8078 62.566 29.6457C62.9985 30.4836 63.6121 31.1242 64.4067 31.5728C65.2013 32.0215 66.1284 32.2432 67.188 32.2432C68.4583 32.2432 69.5043 31.9053 70.3314 31.2323C71.0233 30.6701 71.5558 29.8944 71.9504 28.9267L71.9964 32.054H75.8858V17.1963H71.7639V25.7941V25.7995Z" fill="#FDFEFE"/>
<path d="M86.1729 29.0345C85.8891 29.0751 85.6702 29.094 85.5161 29.094C85.0134 29.094 84.6566 28.9805 84.4404 28.7561C84.2268 28.5291 84.1187 28.1831 84.1187 27.7128V20.2448H86.9811V17.2014H84.1187V13.666H80.0104V17.2014H77.9021V20.2448H80.0104V28.0588C80.0104 29.4129 80.4158 30.4562 81.2294 31.1806C82.0429 31.9077 83.216 32.2699 84.7485 32.2699C85.1593 32.2699 85.5918 32.2428 86.0432 32.1915C86.4945 32.1374 86.9486 32.0455 87.4054 31.9131L86.8162 28.9237C86.6702 28.9588 86.4567 28.9967 86.1729 29.0372V29.0345Z" fill="#FDFEFE"/>
<path d="M99.498 25.7995C99.498 26.4563 99.3737 27.0158 99.1223 27.4807C98.871 27.9456 98.5223 28.2997 98.0736 28.5429C97.625 28.7862 97.1087 28.9078 96.5249 28.9078C95.6654 28.9078 94.9924 28.6483 94.4977 28.124C94.0031 27.6023 93.7572 26.878 93.7572 25.9563V17.199H89.6488V26.6482C89.6488 27.8105 89.865 28.8078 90.3002 29.6457C90.7326 30.4836 91.3462 31.1242 92.1408 31.5728C92.9355 32.0215 93.8626 32.2432 94.9221 32.2432C96.1924 32.2432 97.2384 31.9053 98.0655 31.2323C98.7575 30.6701 99.2899 29.8944 99.6845 28.9267L99.7305 32.054H103.62V17.1963H99.498V25.7941V25.7995Z" fill="#FDFEFE"/>
<path d="M114.948 17.001C114.088 17.001 113.329 17.2361 112.666 17.7037C112.004 18.174 111.531 18.8687 111.25 19.7903H111.085V17.1983H107.115V32.056H111.223V23.6041C111.223 22.9851 111.364 22.4419 111.642 21.977C111.92 21.5121 112.31 21.1499 112.812 20.8877C113.315 20.6282 113.875 20.4958 114.496 20.4958C114.807 20.4958 115.134 20.5147 115.483 20.5498C115.829 20.585 116.094 20.6336 116.277 20.6958V17.1334C116.096 17.0902 115.88 17.055 115.634 17.0334C115.388 17.0118 115.158 17.001 114.95 17.001H114.948Z" fill="#FDFEFE"/>
<path d="M129.657 18.8794C129 18.255 128.238 17.7874 127.37 17.4766C126.502 17.1658 125.567 17.0117 124.562 17.0117C123.072 17.0117 121.778 17.3361 120.672 17.982C119.567 18.628 118.713 19.5281 118.11 20.6795C117.507 21.8309 117.207 23.1743 117.207 24.7068C117.207 26.2393 117.51 27.6313 118.118 28.7719C118.726 29.9152 119.594 30.7963 120.726 31.418C121.859 32.037 123.205 32.3478 124.767 32.3478C125.965 32.3478 127.021 32.1802 127.938 31.8424C128.854 31.5045 129.619 31.0288 130.232 30.4125C130.843 29.7963 131.273 29.0827 131.519 28.2665L127.794 27.588C127.648 27.9691 127.435 28.2908 127.156 28.553C126.878 28.8151 126.543 29.0125 126.151 29.1449C125.759 29.2773 125.321 29.3449 124.837 29.3449C124.124 29.3449 123.502 29.199 122.967 28.907C122.432 28.6151 122.018 28.1773 121.721 27.5907C121.453 27.061 121.313 26.415 121.286 25.6636H131.754V24.5473C131.754 23.2716 131.57 22.1634 131.2 21.2255C130.83 20.2876 130.316 19.5038 129.659 18.8794H129.657ZM122.789 20.4957C123.286 20.1768 123.891 20.0173 124.602 20.0173C125.313 20.0173 125.897 20.1741 126.375 20.4903C126.854 20.8038 127.216 21.2471 127.457 21.8201C127.627 22.2201 127.732 22.6715 127.784 23.1689H121.297C121.343 22.6661 121.464 22.2066 121.656 21.7931C121.913 21.2471 122.289 20.8174 122.786 20.4984L122.789 20.4957Z" fill="#FDFEFE"/>
<path d="M154.404 12.2549L151.063 18.4201C150.726 19.031 150.423 19.6418 150.161 20.2554C150.039 20.5365 149.915 20.85 149.788 21.1825C149.658 20.8527 149.531 20.5473 149.407 20.2689C149.134 19.658 148.817 19.0418 148.461 18.4228L145.009 12.2576H140.119L147.679 24.6151V32.0561H151.842V24.6151L159.28 12.2576H154.404V12.2549Z" fill="#FDFEFE"/>
<path d="M169.465 17.9766C168.346 17.3334 167.016 17.0117 165.472 17.0117C163.929 17.0117 162.61 17.3334 161.486 17.9766C160.364 18.6199 159.496 19.5146 158.891 20.6606C158.283 21.8066 157.98 23.1526 157.98 24.6933C157.98 26.2339 158.283 27.5529 158.891 28.6989C159.499 29.8449 160.364 30.7423 161.486 31.3829C162.61 32.0262 163.937 32.3478 165.472 32.3478C167.008 32.3478 168.346 32.0262 169.465 31.3829C170.584 30.7396 171.446 29.8449 172.054 28.6989C172.662 27.5529 172.965 26.215 172.965 24.6933C172.965 23.1716 172.662 21.8066 172.054 20.6606C171.446 19.5146 170.584 18.6172 169.465 17.9766ZM168.416 26.9988C168.17 27.6853 167.8 28.2259 167.305 28.6205C166.81 29.0152 166.199 29.2125 165.47 29.2125C164.74 29.2125 164.129 29.0152 163.64 28.6205C163.151 28.2259 162.783 27.6853 162.537 26.9988C162.291 26.3123 162.167 25.5393 162.167 24.6798C162.167 23.8202 162.291 23.0229 162.537 22.3418C162.783 21.6607 163.151 21.1228 163.64 20.7336C164.129 20.3444 164.737 20.1498 165.47 20.1498C166.202 20.1498 166.813 20.3444 167.305 20.7336C167.797 21.1228 168.167 21.6607 168.416 22.3418C168.662 23.0256 168.786 23.804 168.786 24.6798C168.786 25.5555 168.662 26.3123 168.416 26.9988Z" fill="#FDFEFE"/>
<path d="M185.674 17.1988V25.7966C185.674 26.4534 185.549 27.0129 185.298 27.4778C185.047 27.9427 184.698 28.2967 184.249 28.54C183.801 28.7833 183.284 28.9049 182.7 28.9049C181.841 28.9049 181.168 28.6454 180.673 28.1211C180.179 27.5994 179.933 26.875 179.933 25.9534V17.1961H175.824V26.6453C175.824 27.8075 176.041 28.8049 176.476 29.6428C176.908 30.4807 177.522 31.1212 178.316 31.5699C179.111 32.0186 180.038 32.2402 181.098 32.2402C182.368 32.2402 183.414 31.9024 184.241 31.2294C184.933 30.6672 185.466 29.8914 185.86 28.9238L185.906 32.051H189.796V17.1934H185.674V17.1988Z" fill="#FDFEFE"/>
</svg>
