<svg width="199" height="46" viewBox="0 0 199 46" fill="none" xmlns="http://www.w3.org/2000/svg">
<path d="M25.8008 0L24.5411 8.24195H3.44817L4.39511 2.04587C4.57632 0.870957 5.58464 0.00292268 6.77417 0.00292268H25.7979L25.8008 0Z" fill="#428FCD"/>
<path d="M11.1231 12.588L9.86344 20.8299L9.19999 25.1759L7.94032 33.4179H2.40769C0.931738 33.4179 -0.196415 32.1027 0.0286309 30.6472L0.864516 25.1788L1.52212 20.8328L2.78179 12.5909H11.1231V12.588Z" fill="#428FCD"/>
<path d="M23.8748 12.588L22.6122 20.827H14.2738L15.5334 12.588H23.8748Z" fill="#293C97"/>
<path d="M32.7538 37.761L31.8069 43.9571C31.6257 45.132 30.6174 46 29.4278 46H10.4217L11.6813 37.7581H32.7538V37.761Z" fill="#293C97"/>
<path d="M33.7943 12.5879C35.2703 12.5879 36.3984 13.9031 36.1734 15.3586L35.3375 20.827L34.6799 25.173L33.4202 33.4149H12.3477L13.6074 25.173H26.3444L27.002 20.827H27.0079L28.2617 12.585H33.7914L33.7943 12.5879Z" fill="#293C97"/>
<path d="M48.6094 33.5143H52.9758V25.5675H61.6971V22.1071H52.9758V16.329H62.6411V12.813H48.6094V33.5143Z" fill="#0F1020"/>
<path d="M75.0274 26.9704C75.0274 27.6573 74.8959 28.2418 74.6329 28.727C74.3698 29.2121 74.0045 29.5833 73.5369 29.8376C73.0692 30.0919 72.5285 30.2205 71.9177 30.2205C71.0204 30.2205 70.3131 29.9486 69.7988 29.4021C69.2814 28.8556 69.0242 28.1015 69.0242 27.137V17.9803H64.7279V27.8589C64.7279 29.0718 64.953 30.1182 65.4089 30.992C65.8619 31.8659 66.5049 32.5381 67.3349 33.0058C68.165 33.4734 69.1353 33.7072 70.2401 33.7072C71.567 33.7072 72.663 33.3565 73.5252 32.6521C74.2471 32.0647 74.8053 31.2522 75.2174 30.2438L75.2671 33.5143H79.3325V17.9803H75.0216V26.9704H75.0274Z" fill="#0F1020"/>
<path d="M90.088 30.3549C89.7928 30.3958 89.5619 30.4163 89.4011 30.4163C88.8751 30.4163 88.5009 30.2994 88.2788 30.0626C88.0538 29.8259 87.9427 29.4635 87.9427 28.9725V21.1631H90.9355V17.9803H87.9427V14.2831H83.6464V17.9803H81.4427V21.1631H83.6464V29.332C83.6464 30.7495 84.0702 31.8367 84.9207 32.5966C85.7712 33.3565 86.9958 33.7364 88.6003 33.7364C89.03 33.7364 89.48 33.7101 89.9535 33.6546C90.427 33.5991 90.9005 33.5026 91.3769 33.3623L90.7602 30.2351C90.6082 30.2731 90.3832 30.3111 90.088 30.352V30.3549Z" fill="#0F1020"/>
<path d="M104.02 26.9704C104.02 27.6573 103.889 28.2418 103.626 28.727C103.363 29.2121 102.997 29.5833 102.53 29.8376C102.062 30.0919 101.521 30.2205 100.911 30.2205C100.013 30.2205 99.3061 29.9486 98.7917 29.4021C98.2744 28.8556 98.0172 28.1015 98.0172 27.137V17.9803H93.7208V27.8589C93.7208 29.0718 93.9459 30.1182 94.4018 30.992C94.8548 31.8659 95.4978 32.5381 96.3279 33.0058C97.1579 33.4734 98.1282 33.7072 99.233 33.7072C100.56 33.7072 101.656 33.3565 102.518 32.6521C103.24 32.0647 103.798 31.2522 104.21 30.2438L104.26 33.5143H108.325V17.9803H104.015V26.9704H104.02Z" fill="#0F1020"/>
<path d="M120.174 17.7728C119.277 17.7728 118.482 18.0183 117.789 18.5093C117.096 19.0003 116.602 19.7281 116.307 20.6896H116.135V17.9803H111.982V33.5143H116.278V24.6791C116.278 24.0302 116.424 23.4632 116.716 22.9781C117.006 22.4929 117.415 22.113 117.941 21.8382C118.467 21.5664 119.052 21.4291 119.703 21.4291C120.028 21.4291 120.373 21.4466 120.735 21.4846C121.098 21.5226 121.375 21.5723 121.565 21.6366V17.9131C121.375 17.8663 121.15 17.8312 120.893 17.8079C120.636 17.7845 120.396 17.7728 120.177 17.7728H120.174Z" fill="#0F1020"/>
<path d="M135.553 19.7397C134.866 19.088 134.068 18.5999 133.162 18.2725C132.256 17.9481 131.277 17.7874 130.228 17.7874C128.67 17.7874 127.317 18.1264 126.163 18.8016C125.008 19.4767 124.114 20.4178 123.485 21.6219C122.854 22.8261 122.541 24.229 122.541 25.8306C122.541 27.4322 122.857 28.8877 123.494 30.0831C124.128 31.2785 125.037 32.1991 126.221 32.8479C127.405 33.4968 128.813 33.8212 130.444 33.8212C131.695 33.8212 132.8 33.6458 133.759 33.2922C134.717 32.9415 135.518 32.4417 136.158 31.7987C136.798 31.1557 137.248 30.4075 137.505 29.5541L133.61 28.8468C133.458 29.2443 133.235 29.5804 132.943 29.8551C132.651 30.1298 132.3 30.3344 131.891 30.4718C131.479 30.6121 131.023 30.6793 130.517 30.6793C129.772 30.6793 129.12 30.5273 128.562 30.2204C128.004 29.9165 127.568 29.4576 127.259 28.8468C126.978 28.2944 126.832 27.6193 126.806 26.8331H137.748V25.6669C137.748 24.3342 137.555 23.1768 137.169 22.1948C136.784 21.2128 136.246 20.3944 135.559 19.7427L135.553 19.7397ZM128.369 21.4261C128.889 21.0929 129.524 20.9263 130.266 20.9263C131.008 20.9263 131.619 21.09 132.122 21.4203C132.622 21.7505 132.999 22.2123 133.253 22.8085C133.428 23.2265 133.542 23.7 133.595 24.2202H126.811C126.861 23.6941 126.987 23.2148 127.188 22.7822C127.457 22.2123 127.849 21.7622 128.369 21.429V21.4261Z" fill="#0F1020"/>
<path d="M161.425 12.813L157.932 19.2604C157.578 19.9005 157.263 20.5377 156.988 21.1777C156.859 21.4729 156.731 21.7973 156.599 22.148C156.465 21.8032 156.333 21.4846 156.202 21.1923C155.915 20.5523 155.585 19.9093 155.214 19.2604L151.604 12.813H146.493L154.396 25.7342V33.5143H158.747V25.7342L166.522 12.813H161.425Z" fill="#0F1020"/>
<path d="M177.169 18.7957C176 18.1235 174.609 17.7874 172.995 17.7874C171.382 17.7874 170.003 18.1235 168.828 18.7957C167.653 19.4679 166.75 20.4032 166.116 21.6015C165.481 22.7998 165.163 24.2056 165.163 25.8189C165.163 27.4322 165.478 28.8088 166.116 30.0071C166.753 31.2054 167.656 32.1406 168.828 32.8129C170.003 33.4851 171.391 33.8212 172.995 33.8212C174.6 33.8212 176 33.4851 177.169 32.8129C178.338 32.1406 179.241 31.2054 179.875 30.0071C180.51 28.8088 180.828 27.4118 180.828 25.8189C180.828 24.226 180.51 22.8027 179.875 21.6015C179.241 20.4003 178.338 19.4679 177.169 18.7957ZM176.073 28.2272C175.816 28.9462 175.427 29.5102 174.913 29.9223C174.398 30.3344 173.758 30.539 172.995 30.539C172.233 30.539 171.596 30.3344 171.084 29.9223C170.573 29.5102 170.19 28.9462 169.933 28.2272C169.675 27.5111 169.547 26.7015 169.547 25.8014C169.547 24.9012 169.675 24.0711 169.933 23.3551C170.19 22.642 170.576 22.0808 171.084 21.6745C171.596 21.2654 172.233 21.0637 172.995 21.0637C173.758 21.0637 174.398 21.2683 174.913 21.6745C175.427 22.0808 175.816 22.642 176.073 23.3551C176.33 24.0682 176.459 24.8836 176.459 25.8014C176.459 26.7191 176.33 27.5082 176.073 28.2272Z" fill="#0F1020"/>
<path d="M194.115 17.9803V26.9704C194.115 27.6573 193.983 28.2418 193.72 28.727C193.457 29.2121 193.092 29.5833 192.624 29.8376C192.157 30.0919 191.616 30.2205 191.005 30.2205C190.108 30.2205 189.4 29.9486 188.886 29.4021C188.369 28.8556 188.112 28.1015 188.112 27.137V17.9803H183.815V27.8589C183.815 29.0718 184.04 30.1182 184.496 30.992C184.949 31.8659 185.592 32.5381 186.422 33.0058C187.252 33.4734 188.223 33.7072 189.327 33.7072C190.654 33.7072 191.75 33.3565 192.613 32.6521C193.334 32.0647 193.893 31.2522 194.305 30.2438L194.354 33.5143H198.42V17.9803H194.109H194.115Z" fill="#0F1020"/>
</svg>
