<svg width="117" height="27" viewBox="0 0 117 27" fill="none" xmlns="http://www.w3.org/2000/svg">
<path d="M15.314 0.174194L14.5748 4.83269H2.19727L2.75294 1.33056C2.85928 0.666475 3.45097 0.175846 4.149 0.175846H15.3123L15.314 0.174194Z" fill="#428FCD"/>
<path d="M6.70101 7.28912L5.96182 11.9476L5.5725 14.4041L4.83331 19.0626H1.58671C0.720608 19.0626 0.0585966 18.3192 0.190656 17.4965L0.681162 14.4057L1.06705 11.9493L1.80624 7.29078H6.70101V7.28912Z" fill="#428FCD"/>
<path d="M14.1838 7.28912L13.4429 11.946H8.5498L9.28899 7.28912H14.1838Z" fill="#293C97"/>
<path d="M19.3938 21.5173L18.8381 25.0195C18.7318 25.6835 18.1401 26.1742 17.4421 26.1742H6.28906L7.02825 21.5157H19.3938V21.5173Z" fill="#293C97"/>
<path d="M20.005 7.28913C20.8711 7.28913 21.5331 8.0325 21.4011 8.85517L20.9105 11.946L20.5247 14.4024L19.7855 19.0609H7.41992L8.15911 14.4024H15.6333L16.0192 11.946H16.0226L16.7584 7.28748H20.0033L20.005 7.28913Z" fill="#293C97"/>
<path d="M28.6982 19.1171H31.2605V14.6254H36.3783V12.6695H31.2605V9.40361H36.9322V7.41632H28.6982V19.1171Z" fill="white"/>
<path d="M44.2001 15.4184C44.2001 15.8066 44.1229 16.137 43.9686 16.4112C43.8142 16.6854 43.5998 16.8952 43.3254 17.0389C43.051 17.1826 42.7337 17.2553 42.3753 17.2553C41.8488 17.2553 41.4337 17.1017 41.1319 16.7928C40.8283 16.4839 40.6774 16.0577 40.6774 15.5125V10.337H38.1562V15.9206C38.1562 16.6061 38.2883 17.1975 38.5559 17.6914C38.8217 18.1854 39.199 18.5653 39.6861 18.8296C40.1732 19.0939 40.7426 19.2261 41.3908 19.2261C42.1695 19.2261 42.8126 19.0279 43.3186 18.6298C43.7422 18.2977 44.0698 17.8385 44.3116 17.2685L44.3407 19.1171H46.7264V10.337H44.1967V15.4184H44.2001Z" fill="white"/>
<path d="M53.038 17.3313C52.8648 17.3545 52.7293 17.366 52.6349 17.366C52.3262 17.366 52.1067 17.3 51.9764 17.1661C51.8443 17.0323 51.7791 16.8275 51.7791 16.55V12.136H53.5353V10.337H51.7791V8.24728H49.258V10.337H47.9648V12.136H49.258V16.7532C49.258 17.5544 49.5067 18.1689 50.0058 18.5984C50.5048 19.0279 51.2234 19.2426 52.165 19.2426C52.4171 19.2426 52.6812 19.2278 52.9591 19.1964C53.2369 19.165 53.5148 19.1105 53.7943 19.0312L53.4324 17.2636C53.3433 17.2851 53.2112 17.3066 53.038 17.3297V17.3313Z" fill="white"/>
<path d="M61.2138 15.4184C61.2138 15.8066 61.1366 16.137 60.9822 16.4112C60.8279 16.6854 60.6135 16.8952 60.3391 17.0389C60.0647 17.1826 59.7474 17.2553 59.389 17.2553C58.8624 17.2553 58.4474 17.1017 58.1455 16.7928C57.842 16.4839 57.6911 16.0577 57.6911 15.5125V10.337H55.1699V15.9206C55.1699 16.6061 55.302 17.1975 55.5695 17.6914C55.8354 18.1854 56.2127 18.5653 56.6997 18.8296C57.1868 19.0939 57.7562 19.2261 58.4045 19.2261C59.1831 19.2261 59.8263 19.0279 60.3322 18.6298C60.7559 18.2977 61.0834 17.8385 61.3253 17.2685L61.3544 19.1171H63.7401V10.337H61.2103V15.4184H61.2138Z" fill="white"/>
<path d="M70.693 10.2197C70.1665 10.2197 69.7 10.3585 69.2936 10.636C68.8871 10.9135 68.5972 11.3248 68.424 11.8683H68.3228V10.337H65.8857V19.1171H68.4069V14.1232C68.4069 13.7565 68.4926 13.436 68.6641 13.1618C68.8339 12.8876 69.074 12.6728 69.3827 12.5176C69.6915 12.3639 70.0345 12.2863 70.4169 12.2863C70.6073 12.2863 70.8097 12.2962 71.0223 12.3177C71.235 12.3391 71.3979 12.3672 71.5094 12.4036V10.299C71.3979 10.2726 71.2659 10.2527 71.1149 10.2395C70.964 10.2263 70.8234 10.2197 70.6948 10.2197H70.693Z" fill="white"/>
<path d="M79.7175 11.3315C79.3144 10.9631 78.8462 10.6872 78.3145 10.5022C77.7829 10.3189 77.2083 10.228 76.5926 10.228C75.6785 10.228 74.8844 10.4196 74.207 10.8012C73.5295 11.1828 73.0047 11.7147 72.636 12.3954C72.2655 13.076 72.082 13.8689 72.082 14.7742C72.082 15.6794 72.2673 16.5021 72.6411 17.1777C73.0133 17.8534 73.5467 18.3737 74.2413 18.7405C74.9359 19.1072 75.7625 19.2906 76.7195 19.2906C77.4536 19.2906 78.1019 19.1915 78.6644 18.9916C79.227 18.7933 79.6969 18.5109 80.0725 18.1474C80.4481 17.784 80.7122 17.3611 80.8631 16.8787L78.5769 16.479C78.4878 16.7036 78.3574 16.8936 78.1859 17.0489C78.0144 17.2042 77.8086 17.3198 77.5685 17.3974C77.3267 17.4767 77.0591 17.5147 76.7624 17.5147C76.3251 17.5147 75.9426 17.4288 75.615 17.2554C75.2875 17.0836 75.0319 16.8242 74.8501 16.479C74.6855 16.1667 74.5997 15.7851 74.5843 15.3408H81.0055V14.6816C81.0055 13.9284 80.8923 13.2742 80.6659 12.7191C80.4395 12.1641 80.1239 11.7015 79.7209 11.3332L79.7175 11.3315ZM75.5019 12.2847C75.8071 12.0963 76.1793 12.0022 76.6149 12.0022C77.0505 12.0022 77.409 12.0947 77.704 12.2814C77.9973 12.468 78.2185 12.729 78.3677 13.066C78.4706 13.3023 78.5375 13.5699 78.5684 13.8639H74.5877C74.6169 13.5666 74.6906 13.2957 74.809 13.0512C74.9668 12.729 75.1966 12.4746 75.5019 12.2863V12.2847Z" fill="white"/>
<path d="M94.8989 7.41635L92.8494 11.0605C92.6419 11.4223 92.4567 11.7824 92.2955 12.1442C92.22 12.3111 92.1446 12.4944 92.0674 12.6927C91.9885 12.4977 91.9113 12.3177 91.8341 12.1525C91.6661 11.7907 91.4723 11.4273 91.2544 11.0605L89.1363 7.41635H86.1367L90.7742 14.7196V19.1171H93.3279V14.7196L97.89 7.41635H94.8989Z" fill="white"/>
<path d="M104.138 10.7979C103.452 10.418 102.636 10.228 101.689 10.228C100.742 10.228 99.9329 10.418 99.2435 10.7979C98.554 11.1779 98.0241 11.7065 97.6519 12.3838C97.2797 13.0611 97.0928 13.8557 97.0928 14.7675C97.0928 15.6794 97.278 16.4575 97.6519 17.1348C98.0258 17.8121 98.5557 18.3407 99.2435 18.7207C99.9329 19.1006 100.748 19.2906 101.689 19.2906C102.631 19.2906 103.452 19.1006 104.138 18.7207C104.824 18.3407 105.354 17.8121 105.726 17.1348C106.099 16.4575 106.285 15.6679 106.285 14.7675C106.285 13.8672 106.099 13.0627 105.726 12.3838C105.354 11.7048 104.824 11.1779 104.138 10.7979ZM103.495 16.1288C103.344 16.5351 103.116 16.854 102.814 17.0869C102.512 17.3198 102.137 17.4354 101.689 17.4354C101.241 17.4354 100.868 17.3198 100.567 17.0869C100.267 16.854 100.043 16.5351 99.8917 16.1288C99.7408 15.724 99.6654 15.2664 99.6654 14.7576C99.6654 14.2488 99.7408 13.7797 99.8917 13.375C100.043 12.9719 100.269 12.6547 100.567 12.4251C100.868 12.1938 101.241 12.0798 101.689 12.0798C102.137 12.0798 102.512 12.1955 102.814 12.4251C103.116 12.6547 103.344 12.9719 103.495 13.375C103.646 13.778 103.721 14.2389 103.721 14.7576C103.721 15.2763 103.646 15.7224 103.495 16.1288Z" fill="white"/>
<path d="M114.082 10.337V15.4184C114.082 15.8066 114.005 16.137 113.85 16.4112C113.696 16.6854 113.482 16.8952 113.207 17.0389C112.933 17.1826 112.616 17.2553 112.257 17.2553C111.731 17.2553 111.316 17.1017 111.014 16.7928C110.71 16.4839 110.559 16.0577 110.559 15.5125V10.337H108.038V15.9206C108.038 16.6061 108.17 17.1975 108.438 17.6914C108.704 18.1854 109.081 18.5653 109.568 18.8296C110.055 19.0939 110.624 19.2261 111.273 19.2261C112.051 19.2261 112.694 19.0279 113.2 18.6298C113.624 18.2977 113.952 17.8385 114.193 17.2685L114.223 19.1171H116.608V10.337H114.079H114.082Z" fill="white"/>
</svg>
