<svg width="344" height="163" viewBox="0 0 344 163" fill="none" xmlns="http://www.w3.org/2000/svg">
<path d="M310.226 0.142537C309.124 0.224342 308.298 1.18363 308.379 2.28517C308.461 3.3867 309.421 4.21336 310.522 4.13155L310.226 0.142537ZM218.351 160.003V158.003H218.018L217.703 158.111L218.351 160.003ZM172.675 135.07L172.635 133.07L172.43 133.075L172.23 133.12L172.675 135.07ZM0.585786 130.173C-0.195262 130.954 -0.195262 132.22 0.585786 133.001L13.3137 145.729C14.0948 146.51 15.3611 146.51 16.1421 145.729C16.9232 144.948 16.9232 143.682 16.1421 142.901L4.82843 131.587L16.1421 120.274C16.9232 119.493 16.9232 118.226 16.1421 117.445C15.3611 116.664 14.0948 116.664 13.3137 117.445L0.585786 130.173ZM310.374 2.13704L310.522 4.13155C319.472 3.46687 326.022 5.35653 330.611 8.91453C335.202 12.4739 338.089 17.9032 339.319 24.8227C341.796 38.7569 337.438 58.2013 327.55 78.1083C307.76 117.951 266.693 158.003 218.351 158.003V160.003V162.003C268.885 162.003 311.03 120.36 331.133 79.8877C341.191 59.6376 345.95 39.2701 343.257 24.1225C341.902 16.5011 338.632 10.0719 333.062 5.75339C327.49 1.43352 319.876 -0.574126 310.226 0.142537L310.374 2.13704ZM218.351 160.003L217.703 158.111C213.139 159.675 209.686 159.036 206.636 157.276C203.438 155.431 200.621 152.323 197.526 148.707C191.569 141.746 184.654 132.831 172.635 133.07L172.675 135.07L172.715 137.07C182.502 136.875 188.18 143.938 194.487 151.307C197.524 154.856 200.756 158.502 204.636 160.741C208.664 163.065 213.318 163.842 219 161.895L218.351 160.003ZM172.675 135.07L172.23 133.12C164.721 134.834 156.688 137.313 148.999 139.632C141.263 141.965 133.892 144.13 127.549 145.291C121.099 146.471 116.201 146.508 113.134 145.065C111.692 144.387 110.655 143.38 110.003 141.919C109.329 140.408 109.005 138.268 109.299 135.265L107.308 135.07L105.318 134.875C104.982 138.302 105.301 141.198 106.349 143.548C107.42 145.947 109.185 147.628 111.432 148.685C115.744 150.713 121.775 150.413 128.269 149.225C134.869 148.018 142.455 145.784 150.153 143.462C157.899 141.126 165.777 138.696 173.12 137.02L172.675 135.07ZM107.308 135.07L109.299 135.265C109.672 131.453 108.458 128.354 105.921 126.054C103.489 123.848 99.9898 122.509 95.9796 121.713C87.9499 120.117 76.8979 120.519 65.1964 121.693C53.448 122.871 40.8035 124.857 29.5363 126.536C18.1913 128.227 8.35126 129.587 2 129.587V131.587V133.587C8.71277 133.587 18.8828 132.168 30.1259 130.492C41.4469 128.805 53.9683 126.839 65.5956 125.673C77.2697 124.502 87.803 124.166 95.2002 125.636C98.9034 126.372 101.578 127.515 103.234 129.017C104.785 130.423 105.574 132.256 105.318 134.875L107.308 135.07Z" fill="#293C97"/>
</svg>
