<svg width="40" height="40" viewBox="0 0 40 40" fill="none" xmlns="http://www.w3.org/2000/svg">
<rect width="40" height="40" rx="6" fill="#EDEDED"/>
<rect x="0.25" y="0.25" width="39.5" height="39.5" rx="5.75" stroke="url(#paint0_linear_365_1173)" stroke-opacity="0.02" stroke-width="0.5"/>
<path d="M26 10V12M14 10V12" stroke="#428FCD" stroke-width="1.5" stroke-linecap="round" stroke-linejoin="round"/>
<path d="M19.9955 21H20.0045M19.9955 25H20.0045M23.991 21H24M16 21H16.009M16 25H16.009" stroke="#428FCD" stroke-width="1.5" stroke-linecap="round" stroke-linejoin="round"/>
<path d="M11.5 16H28.5" stroke="#428FCD" stroke-width="1.5" stroke-linecap="round" stroke-linejoin="round"/>
<path d="M10.5 20.2432C10.5 15.8859 10.5 13.7073 11.7521 12.3536C13.0042 11 15.0195 11 19.05 11H20.95C24.9805 11 26.9958 11 28.2479 12.3536C29.5 13.7073 29.5 15.8859 29.5 20.2432V20.7568C29.5 25.1141 29.5 27.2927 28.2479 28.6464C26.9958 30 24.9805 30 20.95 30H19.05C15.0195 30 13.0042 30 11.7521 28.6464C10.5 27.2927 10.5 25.1141 10.5 20.7568V20.2432Z" stroke="#428FCD" stroke-width="1.5" stroke-linecap="round" stroke-linejoin="round"/>
<path d="M11 16H29" stroke="#428FCD" stroke-width="1.5" stroke-linecap="round" stroke-linejoin="round"/>
<defs>
<linearGradient id="paint0_linear_365_1173" x1="0" y1="20" x2="40" y2="20" gradientUnits="userSpaceOnUse">
<stop stop-color="#F7F7F7"/>
<stop offset="1" stop-color="#969696"/>
</linearGradient>
</defs>
</svg>
