<svg width="40" height="40" viewBox="0 0 40 40" fill="none" xmlns="http://www.w3.org/2000/svg">
<rect width="40" height="40" rx="8" fill="#428FCD"/>
<path d="M16.1566 23.8434C15.0799 23.8362 13.5974 23.5728 12.4341 22.4096C10.3623 20.3378 11.145 17.2532 11.145 17.2532C11.145 17.2532 12.7602 16.8435 14.4381 17.4019C14.4259 17.3101 14.4156 17.217 14.4075 17.1227C14.3932 16.9551 14.3855 16.7838 14.3856 16.6086C14.3855 13.0031 17.5904 11 17.5904 11C17.5904 11 19.5931 12.2517 20.4323 14.5572C23.2245 12.6037 26.6141 13.3859 26.6141 13.3859C26.6141 13.3859 27.3963 16.7755 25.4428 19.5677C27.7483 20.4069 29 22.4096 29 22.4096C29 22.4096 26.9969 25.6145 23.3914 25.6144C23.1177 25.6144 22.8531 25.596 22.5981 25.5619C23.1565 27.2398 22.7468 28.855 22.7468 28.855C22.7468 28.855 19.6622 29.6377 17.5904 27.5659" stroke="white" stroke-width="1.5" stroke-linecap="round" stroke-linejoin="round"/>
<path d="M11 29L21 19" stroke="white" stroke-width="1.5" stroke-linecap="round"/>
</svg>
