<svg width="40" height="40" viewBox="0 0 40 40" fill="none" xmlns="http://www.w3.org/2000/svg">
<path d="M0 8C0 3.58172 3.58172 0 8 0H32C36.4183 0 40 3.58172 40 8V32C40 36.4183 36.4183 40 32 40H8C3.58172 40 0 36.4183 0 32V8Z" fill="#293C97"/>
<path d="M18 21.3333C18 21.0233 18 20.8683 18.0341 20.7412C18.1265 20.3961 18.3961 20.1265 18.7412 20.0341C18.8683 20 19.0233 20 19.3333 20H20.6667C20.9767 20 21.1317 20 21.2588 20.0341C21.6039 20.1265 21.8735 20.3961 21.9659 20.7412C22 20.8683 22 21.0233 22 21.3333V22C22 23.1046 21.1046 24 20 24C18.8954 24 18 23.1046 18 22V21.3333Z" stroke="white" stroke-width="1.5" stroke-linecap="round" stroke-linejoin="round"/>
<path d="M21.9 21.5H23.0826C24.3668 21.5 25.0089 21.5 25.5556 21.3842C27.138 21.049 28.429 20.0207 28.9939 18.6455C29.1891 18.1704 29.2687 17.5955 29.428 16.4457C29.4878 16.014 29.5177 15.7982 29.489 15.6217C29.4052 15.1075 28.9932 14.6864 28.4381 14.5476C28.2475 14.5 28.0065 14.5 27.5244 14.5H12.4756C11.9935 14.5 11.7524 14.5 11.5619 14.5476C11.0068 14.6864 10.5948 15.1075 10.511 15.6217C10.4823 15.7982 10.5122 16.014 10.572 16.4457C10.7313 17.5955 10.8109 18.1704 11.0061 18.6455C11.571 20.0207 12.862 21.049 14.4444 21.3842C14.991 21.5 15.6332 21.5 16.9174 21.5H18.1" stroke="white" stroke-width="1.5"/>
<path d="M11.5 19.5V21.5C11.5 25.2712 11.5 27.1569 12.6065 28.3284C13.713 29.5 15.4938 29.5 19.0556 29.5H20.9444C24.5062 29.5 26.287 29.5 27.3935 28.3284C28.5 27.1569 28.5 25.2712 28.5 21.5V19.5" stroke="white" stroke-width="1.5" stroke-linecap="round" stroke-linejoin="round"/>
<path d="M23.5 14.5L23.4227 14.1468C23.0377 12.3867 22.8452 11.5067 22.3869 11.0034C21.9286 10.5 21.3199 10.5 20.1023 10.5H19.8977C18.6801 10.5 18.0714 10.5 17.6131 11.0034C17.1548 11.5067 16.9623 12.3867 16.5773 14.1468L16.5 14.5" stroke="white" stroke-width="1.5"/>
</svg>
