<svg width="25" height="24" viewBox="0 0 25 24" fill="none" xmlns="http://www.w3.org/2000/svg">
<path d="M21.8404 16.8354C21.1841 12.8866 19.1409 9.94613 17.3647 8.219C16.8478 7.71642 16.5894 7.46513 16.0185 7.23257C15.4476 7 14.9569 7 13.9755 7H11.8199C10.8385 7 10.3478 7 9.77692 7.23257C9.20604 7.46513 8.94761 7.71642 8.43074 8.219C6.65452 9.94613 4.61131 12.8866 3.95497 16.8354C3.46663 19.7734 6.17697 22 9.20602 22H16.5894C19.6184 22 22.3288 19.7734 21.8404 16.8354Z" stroke="white" stroke-width="1.5" stroke-linecap="round"/>
<path d="M8.15433 4.44287C7.94802 4.14258 7.64899 3.73499 8.2667 3.64205C8.90163 3.54651 9.56091 3.98114 10.2063 3.97221C10.7901 3.96413 11.0875 3.70519 11.4066 3.33548C11.7426 2.94617 12.2629 2 12.8977 2C13.5325 2 14.0528 2.94617 14.3888 3.33548C14.7079 3.70519 15.0053 3.96413 15.5891 3.97221C16.2345 3.98114 16.8938 3.54651 17.5287 3.64205C18.1464 3.73499 17.8474 4.14258 17.6411 4.44287L16.7082 5.80064C16.3092 6.38146 16.1097 6.67187 15.6921 6.83594C15.2746 7 14.735 7 13.6559 7H12.1395C11.0604 7 10.5208 7 10.1033 6.83594C9.68572 6.67187 9.48621 6.38146 9.08716 5.80064L8.15433 4.44287Z" stroke="white" stroke-width="1.5"/>
</svg>
