<svg width="20" height="21" viewBox="0 0 20 21" fill="none" xmlns="http://www.w3.org/2000/svg">
<path d="M1.66666 2.16699H13.3333C14.9047 2.16699 15.6903 2.16699 16.1785 2.65515C16.6667 3.1433 16.6667 3.92898 16.6667 5.50033V10.5003C16.6667 12.0717 16.6667 12.8573 16.1785 13.3455C15.6903 13.8337 14.9047 13.8337 13.3333 13.8337H7.5" stroke="#454545" stroke-width="1.5" stroke-linecap="round" stroke-linejoin="round"/>
<path d="M8.33334 5.91699H13.3333" stroke="#454545" stroke-width="1.5" stroke-linecap="round" stroke-linejoin="round"/>
<path d="M1.66666 14.667V11.3337C1.66666 10.548 1.66666 10.1552 1.91074 9.91108C2.15482 9.66699 2.54766 9.66699 3.33333 9.66699H5M1.66666 14.667H5M1.66666 14.667V18.8337M5 9.66699V14.667M5 9.66699H7.5H10M5 14.667V18.8337" stroke="#454545" stroke-width="1.5" stroke-linecap="round" stroke-linejoin="round"/>
<path d="M5 5.91667C5 6.83714 4.25381 7.58333 3.33333 7.58333C2.41286 7.58333 1.66666 6.83714 1.66666 5.91667C1.66666 4.99619 2.41286 4.25 3.33333 4.25C4.25381 4.25 5 4.99619 5 5.91667Z" stroke="#454545" stroke-width="1.5"/>
</svg>
