<svg width="50" height="50" viewBox="0 0 50 50" fill="none" xmlns="http://www.w3.org/2000/svg">
<rect width="50" height="50" rx="8" fill="#293C97"/>
<path d="M33.9427 29.8354C33.2864 25.8866 31.2432 22.9461 29.467 21.219C28.9501 20.7164 28.6917 20.4651 28.1208 20.2326C27.5499 20 27.0592 20 26.0778 20H23.9222C22.9408 20 22.4501 20 21.8792 20.2326C21.3083 20.4651 21.0499 20.7164 20.533 21.219C18.7568 22.9461 16.7136 25.8866 16.0573 29.8354C15.5689 32.7734 18.2793 35 21.3083 35H28.6917C31.7207 35 34.4311 32.7734 33.9427 29.8354Z" stroke="white" stroke-width="1.5" stroke-linecap="round"/>
<path d="M20.2566 17.4429C20.0503 17.1426 19.7513 16.735 20.369 16.6421C21.0039 16.5465 21.6632 16.9811 22.3085 16.9722C22.8924 16.9641 23.1898 16.7052 23.5089 16.3355C23.8449 15.9462 24.3652 15 25 15C25.6348 15 26.1551 15.9462 26.4911 16.3355C26.8102 16.7052 27.1076 16.9641 27.6914 16.9722C28.3368 16.9811 28.9961 16.5465 29.631 16.6421C30.2487 16.735 29.9497 17.1426 29.7434 17.4429L28.8105 18.8006C28.4115 19.3815 28.212 19.6719 27.7944 19.8359C27.3769 20 26.8373 20 25.7582 20H24.2418C23.1627 20 22.6231 20 22.2056 19.8359C21.788 19.6719 21.5885 19.3815 21.1895 18.8006L20.2566 17.4429Z" stroke="white" stroke-width="1.5"/>
</svg>
