<svg width="60" height="60" viewBox="0 0 60 60" fill="none" xmlns="http://www.w3.org/2000/svg">
<path d="M0 8C0 3.58172 3.58172 0 8 0H52C56.4183 0 60 3.58172 60 8V52C60 56.4183 56.4183 60 52 60H8C3.58172 60 0 56.4183 0 52V8Z" fill="#293C97"/>
<path d="M36.25 30C36.25 33.4517 33.4517 36.25 30 36.25C26.5482 36.25 23.75 33.4517 23.75 30C23.75 26.5482 26.5482 23.75 30 23.75C33.4517 23.75 36.25 26.5482 36.25 30Z" stroke="white" stroke-width="1.875"/>
<path d="M29.9944 18.75H30.0056M29.9951 41.25H30.0064M37.9485 22.045H37.9597M22.0426 37.955H22.0538M22.0426 22.0456H22.0538M37.9478 37.9556H37.959M41.2387 30.0007H41.25M18.75 30.0007H18.7612" stroke="white" stroke-width="2.5" stroke-linecap="round" stroke-linejoin="round"/>
</svg>
