<svg width="25" height="24" viewBox="0 0 25 24" fill="none" xmlns="http://www.w3.org/2000/svg">
<path d="M3.89771 11.9896V14.5C3.89771 17.7998 3.8977 19.4497 4.92283 20.4749C5.94795 21.5 7.59788 21.5 10.8977 21.5H14.8977C18.1975 21.5 19.8474 21.5 20.8726 20.4749C21.8977 19.4497 21.8977 17.7998 21.8977 14.5V11.9896C21.8977 10.3083 21.8977 9.46773 21.5418 8.74005C21.1859 8.01237 20.5224 7.49628 19.1953 6.46411L17.1953 4.90855C15.1308 3.30285 14.0986 2.5 12.8977 2.5C11.6968 2.5 10.6646 3.30285 8.60013 4.90855L6.60012 6.46411C5.27304 7.49628 4.6095 8.01237 4.25361 8.74005C3.89771 9.46773 3.89771 10.3083 3.89771 11.9896Z" stroke="white" stroke-width="1.5" stroke-linecap="round" stroke-linejoin="round"/>
<path d="M15.8979 17C15.0984 17.6224 14.0481 18 12.8979 18C11.7476 18 10.6974 17.6224 9.89789 17" stroke="white" stroke-width="1.5" stroke-linecap="round" stroke-linejoin="round"/>
</svg>
