<svg width="20" height="21" viewBox="0 0 20 21" fill="none" xmlns="http://www.w3.org/2000/svg">
<path d="M17.4522 14.5292C16.9053 11.2385 15.2027 8.78812 13.7225 7.34884C13.2917 6.93002 13.0764 6.72062 12.6007 6.52682C12.1249 6.33301 11.716 6.33301 10.8982 6.33301H9.10183C8.28401 6.33301 7.87508 6.33301 7.39935 6.52682C6.92361 6.72062 6.70826 6.93002 6.27753 7.34884C4.79735 8.78812 3.09467 11.2385 2.54772 14.5292C2.14077 16.9775 4.39939 18.833 6.9236 18.833H13.0764C15.6006 18.833 17.8592 16.9775 17.4522 14.5292Z" stroke="#454545" stroke-width="1.25" stroke-linecap="round"/>
<path d="M6.04719 4.20272C5.87526 3.95248 5.62607 3.61282 6.14083 3.53537C6.66994 3.45575 7.21934 3.81794 7.75713 3.8105C8.24364 3.80377 8.4915 3.58798 8.75742 3.27989C9.03742 2.95547 9.471 2.16699 10 2.16699C10.529 2.16699 10.9626 2.95547 11.2426 3.27989C11.5085 3.58798 11.7563 3.80377 12.2428 3.8105C12.7807 3.81794 13.3301 3.45575 13.8592 3.53537C14.3739 3.61282 14.1248 3.95248 13.9528 4.20272L13.1754 5.33419C12.8429 5.81821 12.6767 6.06022 12.3287 6.19694C11.9808 6.33366 11.5311 6.33366 10.6318 6.33366H9.36817C8.46892 6.33366 8.01925 6.33366 7.6713 6.19694C7.32335 6.06022 7.15709 5.81821 6.82454 5.33419L6.04719 4.20272Z" stroke="#454545" stroke-width="1.25"/>
</svg>
