<svg width="64" height="64" viewBox="0 0 64 64" fill="none" xmlns="http://www.w3.org/2000/svg">
<rect width="64" height="64" rx="12" fill="#293C97"/>
<path d="M26.666 22V20M37.3327 22V20" stroke="white" stroke-width="2" stroke-linecap="round" stroke-linejoin="round"/>
<path d="M42 26.6666H44M42 37.3333H44" stroke="white" stroke-width="2" stroke-linecap="round" stroke-linejoin="round"/>
<path d="M26.666 44V42M37.3327 44V42" stroke="white" stroke-width="2" stroke-linecap="round" stroke-linejoin="round"/>
<path d="M20 26.6666H22M20 37.3333H22" stroke="white" stroke-width="2" stroke-linecap="round" stroke-linejoin="round"/>
<path d="M26.666 30.6666C26.666 28.781 26.666 27.8382 27.2518 27.2524C27.8376 26.6666 28.7804 26.6666 30.666 26.6666H33.3327C35.2183 26.6666 36.1611 26.6666 36.7469 27.2524C37.3327 27.8382 37.3327 28.781 37.3327 30.6666V33.3333C37.3327 35.2189 37.3327 36.1617 36.7469 36.7476C36.1611 37.3333 35.2183 37.3333 33.3327 37.3333H30.666C28.7804 37.3333 27.8376 37.3333 27.2518 36.7476C26.666 36.1617 26.666 35.2189 26.666 33.3333V30.6666Z" stroke="white" stroke-width="2"/>
</svg>
