<svg width="59" height="42" viewBox="0 0 59 42" fill="none" xmlns="http://www.w3.org/2000/svg">
<path d="M1 5.07052e-06C0.447716 5.1188e-06 -4.82823e-08 0.44772 0 1.00001C4.82823e-08 1.55229 0.447716 2.00001 1 2.00001L1 5.07052e-06ZM59 1L59 0L1 5.07052e-06L1 1.00001L1 2.00001L59 2L59 1Z" fill="#0E0E1D"/>
<path d="M33 10C32.4477 10 32 10.4477 32 11C32 11.5523 32.4477 12 33 12L33 10ZM59 11L59 10L33 10L33 11L33 12L59 12L59 11Z" fill="#DEDEDE"/>
<path d="M33 20C32.4477 20 32 20.4477 32 21C32 21.5523 32.4477 22 33 22L33 20ZM59 21L59 20L33 20L33 21L33 22L59 22L59 21Z" fill="#DEDEDE"/>
<path d="M33 30C32.4477 30 32 30.4477 32 31C32 31.5523 32.4477 32 33 32L33 30ZM59 31L59 30L33 30L33 31L33 32L59 32L59 31Z" fill="#DEDEDE"/>
<path d="M33 40C32.4477 40 32 40.4477 32 41C32 41.5523 32.4477 42 33 42L33 40ZM59 41L59 40L33 40L33 41L33 42L59 42L59 41Z" fill="#DEDEDE"/>
</svg>
