<svg width="60" height="60" viewBox="0 0 60 60" fill="none" xmlns="http://www.w3.org/2000/svg">
<path d="M0 8C0 3.58172 3.58172 0 8 0H52C56.4183 0 60 3.58172 60 8V52C60 56.4183 56.4183 60 52 60H8C3.58172 60 0 56.4183 0 52V8Z" fill="#428FCD"/>
<path d="M37.5 40C38.8807 40 40 38.8807 40 37.5V22.5C40 21.1193 38.8807 20 37.5 20" stroke="white" stroke-width="1.875" stroke-linecap="round" stroke-linejoin="round"/>
<path d="M20 23.5596V36.4404C20 38.4317 20 39.4275 20.5806 40.122C21.1612 40.8164 22.1427 40.9945 24.1056 41.3507L27.8556 42.0314C30.5876 42.5271 31.9537 42.7751 32.8519 42.0269C33.75 41.2787 33.75 39.8927 33.75 37.121V22.8791C33.75 20.1072 33.75 18.7213 32.8519 17.9731C31.9537 17.2249 30.5876 17.4728 27.8556 17.9687L24.1056 18.6493C22.1427 19.0055 21.1612 19.1836 20.5806 19.878C20 20.5725 20 21.5682 20 23.5596Z" stroke="white" stroke-width="1.875" stroke-linecap="round" stroke-linejoin="round"/>
<path d="M29.375 29.9979V29.9854" stroke="white" stroke-width="2.5" stroke-linecap="round" stroke-linejoin="round"/>
</svg>
