<svg width="64" height="64" viewBox="0 0 64 64" fill="none" xmlns="http://www.w3.org/2000/svg">
<rect width="64" height="64" rx="12" fill="#428FCD"/>
<path d="M39.6667 30C42.7963 30 45.3333 27.4629 45.3333 24.3333C45.3333 21.2037 42.7963 18.6666 39.6667 18.6666C36.5371 18.6666 34 21.2037 34 24.3333C34 27.4629 36.5371 30 39.6667 30Z" stroke="white" stroke-width="1.5"/>
<path d="M24.3327 30.0001C27.4623 30.0001 29.9993 27.463 29.9993 24.3334C29.9993 21.2038 27.4623 18.6667 24.3327 18.6667C21.2031 18.6667 18.666 21.2038 18.666 24.3334C18.666 27.463 21.2031 30.0001 24.3327 30.0001Z" stroke="white" stroke-width="1.5"/>
<path d="M39.6667 45.3333C42.7963 45.3333 45.3333 42.7963 45.3333 39.6667C45.3333 36.5371 42.7963 34 39.6667 34C36.5371 34 34 36.5371 34 39.6667C34 42.7963 36.5371 45.3333 39.6667 45.3333Z" stroke="white" stroke-width="1.5"/>
<path d="M24.3327 45.3333C27.4623 45.3333 29.9993 42.7963 29.9993 39.6667C29.9993 36.5371 27.4623 34 24.3327 34C21.2031 34 18.666 36.5371 18.666 39.6667C18.666 42.7963 21.2031 45.3333 24.3327 45.3333Z" stroke="white" stroke-width="1.5"/>
</svg>
