<svg width="50" height="50" viewBox="0 0 50 50" fill="none" xmlns="http://www.w3.org/2000/svg">
<rect width="50" height="50" rx="10" fill="#C3C8E2"/>
<path d="M21.4292 23.3637L21.6879 23.1051C24.1612 20.6316 28.1715 20.6316 30.6449 23.1051C33.1184 25.5785 33.1184 29.5887 30.6449 32.0621L27.0621 35.6449C24.5887 38.1184 20.5785 38.1184 18.1051 35.6449C15.6316 33.1715 15.6316 29.1612 18.1051 26.6879L18.6855 26.1075" stroke="#293C97" stroke-width="1.875" stroke-linecap="round"/>
<path d="M31.3145 23.8925L31.8949 23.3121C34.3684 20.8387 34.3684 16.8285 31.8949 14.3551C29.4215 11.8816 25.4112 11.8816 22.9379 14.3551L19.3551 17.9379C16.8816 20.4113 16.8816 24.4215 19.3551 26.8949C21.8285 29.3684 25.8387 29.3684 28.3121 26.8949L28.5707 26.6362" stroke="#293C97" stroke-width="1.875" stroke-linecap="round"/>
</svg>
