<svg width="50" height="50" viewBox="0 0 50 50" fill="none" xmlns="http://www.w3.org/2000/svg">
<rect width="50" height="50" rx="10" fill="#C3C8E2"/>
<path d="M36.1784 31.0442C35.358 26.1082 32.804 22.4327 30.5837 20.2737C29.9376 19.6455 29.6146 19.3314 28.901 19.0407C28.1874 18.75 27.574 18.75 26.3472 18.75H23.6527C22.426 18.75 21.8126 18.75 21.099 19.0407C20.3854 19.3314 20.0624 19.6455 19.4163 20.2737C17.196 22.4327 14.642 26.1082 13.8216 31.0442C13.2112 34.7167 16.5991 37.5 20.3854 37.5H29.6146C33.4009 37.5 36.7889 34.7167 36.1784 31.0442Z" stroke="#293C97" stroke-width="1.875" stroke-linecap="round"/>
<path d="M19.0708 15.5536C18.8129 15.1782 18.4391 14.6687 19.2112 14.5526C20.0049 14.4331 20.829 14.9764 21.6357 14.9653C22.3655 14.9552 22.7372 14.6315 23.1361 14.1693C23.5561 13.6827 24.2065 12.5 25 12.5C25.7935 12.5 26.4439 13.6827 26.8639 14.1693C27.2628 14.6315 27.6345 14.9552 28.3642 14.9653C29.171 14.9764 29.9951 14.4331 30.7888 14.5526C31.5609 14.6687 31.1871 15.1782 30.9293 15.5536L29.7631 17.2508C29.2644 17.9768 29.015 18.3398 28.493 18.5449C27.9711 18.75 27.2966 18.75 25.9477 18.75H24.0523C22.7034 18.75 22.0289 18.75 21.5069 18.5449C20.985 18.3398 20.7356 17.9768 20.2368 17.2508L19.0708 15.5536Z" stroke="#293C97" stroke-width="1.875"/>
</svg>
