<svg width="50" height="50" viewBox="0 0 50 50" fill="none" xmlns="http://www.w3.org/2000/svg">
<rect width="50" height="50" rx="10" fill="#C3C8E2"/>
<path d="M18.75 25V36.25M31.25 25V36.25" stroke="#293C97" stroke-width="1.875" stroke-linecap="round" stroke-linejoin="round"/>
<path d="M13.75 25H36.25" stroke="#293C97" stroke-width="1.875" stroke-linecap="round" stroke-linejoin="round"/>
<path d="M13.125 27.1875C13.125 22.6208 13.125 20.3374 14.5162 18.9187C15.9075 17.5 18.1467 17.5 22.625 17.5H27.375C31.8534 17.5 34.0925 17.5 35.4837 18.9187C36.875 20.3374 36.875 22.6208 36.875 27.1875C36.875 31.7542 36.875 34.0376 35.4837 35.4562C34.0925 36.875 31.8534 36.875 27.375 36.875H22.625C18.1467 36.875 15.9075 36.875 14.5162 35.4562C13.125 34.0376 13.125 31.7542 13.125 27.1875Z" stroke="#293C97" stroke-width="1.875" stroke-linecap="round"/>
<path d="M30.625 17.5L30.5009 17.1137C29.882 15.1886 29.5726 14.2261 28.8361 13.6755C28.0995 13.125 27.1213 13.125 25.1645 13.125H24.8355C22.8787 13.125 21.9005 13.125 21.1639 13.6755C20.4273 14.2261 20.1179 15.1886 19.4992 17.1137L19.375 17.5" stroke="#293C97" stroke-width="1.875"/>
</svg>
