<svg width="25" height="24" viewBox="0 0 25 24" fill="none" xmlns="http://www.w3.org/2000/svg">
<path d="M2.56439 2H16.5644C18.45 2 19.3928 2 19.9786 2.58579C20.5644 3.17157 20.5644 4.11438 20.5644 6V12C20.5644 13.8856 20.5644 14.8284 19.9786 15.4142C19.3928 16 18.45 16 16.5644 16H9.56439" stroke="white" stroke-width="1.5" stroke-linecap="round" stroke-linejoin="round"/>
<path d="M10.5644 6.5H16.5644" stroke="white" stroke-width="1.5" stroke-linecap="round" stroke-linejoin="round"/>
<path d="M2.56439 17V13C2.56439 12.0572 2.56439 11.5858 2.85728 11.2929C3.15018 11 3.62158 11 4.56439 11H6.56439M2.56439 17H6.56439M2.56439 17V22M6.56439 11V17M6.56439 11H9.56439H12.5644M6.56439 17V22" stroke="white" stroke-width="1.5" stroke-linecap="round" stroke-linejoin="round"/>
<path d="M6.56439 6.5C6.56439 7.60457 5.66896 8.5 4.56439 8.5C3.45982 8.5 2.56439 7.60457 2.56439 6.5C2.56439 5.39543 3.45982 4.5 4.56439 4.5C5.66896 4.5 6.56439 5.39543 6.56439 6.5Z" stroke="white" stroke-width="1.5"/>
</svg>
